<svg xmlns="http://www.w3.org/2000/svg" viewBox="-0.5 -0.5 16 16" fill="none" fill-rule="evenodd"><path fill="#ffffff" d="M11.875 1.875a1.25 1.25 0 0 1 1.25 1.25v8.75a1.25 1.25 0 0 1 -1.25 1.25H3.125a1.25 1.25 0 0 1 -1.25 -1.25V3.125a1.25 1.25 0 0 1 1.25 -1.25h8.75Zm0 1.25v1.875H3.125V3.125h8.75Zm-3.49125 7.0043750000000005L7.5 9.245625l-0.8837499999999999 0.8837499999999999a0.625 0.625 0 0 1 -0.8837499999999999 -0.8837499999999999l1.3250000000000002 -1.325625a0.625 0.625 0 0 1 0.884375 0l1.325625 1.325625a0.625 0.625 0 1 1 -0.8837499999999999 0.8837499999999999Z" stroke-width="1"/></svg>