<svg xmlns="http://www.w3.org/2000/svg" viewBox="-0.5 -0.5 16 16" fill="none" fill-rule="evenodd"><path fill="#ffffff" d="M1.875 3.125a1.25 1.25 0 0 1 1.25 -1.25h8.75a1.25 1.25 0 0 1 1.25 1.25v8.75a1.25 1.25 0 0 1 -1.25 1.25H3.125a1.25 1.25 0 0 1 -1.25 -1.25V3.125Zm1.25 0h1.875v8.75H3.125V3.125Zm7.0043750000000005 3.49125L9.245625 7.5l0.8837499999999999 0.8837499999999999a0.625 0.625 0 0 1 -0.8837499999999999 0.8837499999999999l-1.325625 -1.3250000000000002a0.625 0.625 0 0 1 0 -0.884375l1.325625 -1.325625a0.625 0.625 0 1 1 0.8837499999999999 0.8837499999999999Z" stroke-width="1"/></svg>