<svg xmlns="http://www.w3.org/2000/svg" viewBox="-0.5 -0.5 16 16"><path fill="#ffffff" d="M11.875 1.875a1.25 1.25 0 0 1 1.25 1.25v8.75a1.25 1.25 0 0 1 -1.25 1.25H3.125a1.25 1.25 0 0 1 -1.25 -1.25V3.125a1.25 1.25 0 0 1 1.25 -1.25h8.75Zm0 1.25h-1.875v8.75h1.875V3.125ZM4.870625 5.7325a0.625 0.625 0 0 0 0 0.8837499999999999L5.7543750000000005 7.5l-0.8837499999999999 0.8837499999999999a0.625 0.625 0 1 0 0.8837499999999999 0.8837499999999999l1.325625 -1.3250000000000002a0.625 0.625 0 0 0 0 -0.884375l-1.3250000000000002 -1.325625a0.625 0.625 0 0 0 -0.884375 0Z" stroke-width="1"/></svg>
