<svg xmlns="http://www.w3.org/2000/svg" viewBox="0 0 100 100" fill="#ffffff"><g transform="translate(0,-952.36218)"><path d="m 50.09375,956.36437 c 0.3871,0.013 0.74204,0.088 1.03125,0.1875 l 39.999999,16 c 1.10955,0.4489 1.88743,1.6157 1.875,2.8125 l 0,54.00003 c -1e-5,1.1865 -0.77517,2.3363 -1.875,2.7812 l -39.999999,16 c -0.7127,0.2883 -1.5373,0.2883 -2.25,0 l -40.0000003,-16 c -1.09983,-0.4449 -1.87499,-1.5947 -1.875,-2.7812 l 0,-54.00003 c -0.0124,-1.1968 0.76545,-2.3636 1.875,-2.8125 l 40.0000003,-16 c 0.41241,-0.1497 0.83165,-0.2 1.21875,-0.1875 z m -0.0937,6.2188 -31.875,12.75 11.25,4.5312 30.125,-13.4688 -9.5,-3.8124 z m 18.3125,7.3437 -31.0625,13.0625 12.75,5.12502 31.875,-12.75002 -13.5625,-5.4375 z m 18.6875,9.875 -34,13.59372 0,47.53131 34,-13.625 0,-47.50003 z m -74,0 0,47.50003 34,13.625 0,-47.53131 -13,-5.1874 0,14.15621 -8,-3.00001 0,-14.37502 -13,-5.1875 z"/></g></svg>