<svg xmlns="http://www.w3.org/2000/svg" viewBox="-0.5 -0.5 16 16"><path d="M2.5 3.125a1.875 1.875 0 0 1 1.875 -1.875h6.25a1.875 1.875 0 0 1 1.875 1.875v10.017499999999998c0 0.7625 -0.8624999999999999 1.20625 -1.4825 0.763125L7.5 11.393125l-3.5175 2.5124999999999997c-0.620625 0.44375 -1.4825 0 -1.4825 -0.7625V3.125Zm1.875 -0.625a0.625 0.625 0 0 0 -0.625 0.625v9.410625l3.205 -2.2893749999999997a0.9375 0.9375 0 0 1 1.09 0L11.25 12.535625V3.125a0.625 0.625 0 0 0 -0.625 -0.625H4.375Z" fill="#ffffff" stroke-width="1"/></svg>