<svg xmlns="http://www.w3.org/2000/svg" viewBox="-0.5 -0.5 16 16"><path d="M12.5 2.5a1.25 1.25 0 0 1 1.2468750000000002 1.15625L13.75 3.75v7.5a1.25 1.25 0 0 1 -1.15625 1.2468750000000002L12.5 12.5H2.5a1.25 1.25 0 0 1 -1.2468750000000002 -1.15625L1.25 11.25V3.75a1.25 1.25 0 0 1 1.15625 -1.2468750000000002L2.5 2.5h10Zm0 2.13375 -4.3375 4.3375a0.9375 0.9375 0 0 1 -1.3250000000000002 0L2.5 4.63375V11.25h10V4.63375ZM11.616249999999999 3.75H3.38375L7.5 7.86625 11.616249999999999 3.75Z" fill="#ffffff" stroke-width="1"/></svg>