<svg xmlns="http://www.w3.org/2000/svg" viewBox="-0.5 -0.5 16 16"><path d="M7.5 1.875a4.375 4.375 0 0 1 4.375 4.375v2.3525l1.13875 2.2775A0.6875 0.6875 0 0 1 12.39875 11.875H2.60125a0.6875 0.6875 0 0 1 -0.615 -0.9950000000000001L3.125 8.6025V6.25a4.375 4.375 0 0 1 4.375 -4.375Zm0 1.25a3.125 3.125 0 0 0 -3.125 3.125v2.3525a1.25 1.25 0 0 1 -0.131875 0.55875L3.511875 10.625h7.976875l-0.73125 -1.46375a1.25 1.25 0 0 1 -0.1325 -0.55875V6.25a3.125 3.125 0 0 0 -3.125 -3.125Zm3.05 -1.6437499999999998a0.625 0.625 0 0 1 0.8787499999999999 -0.091875 6.2749999999999995 6.2749999999999995 0 0 1 1.6312499999999999 2.00375 0.625 0.625 0 0 1 -1.11125 0.571875 5.023125 5.023125 0 0 0 -1.30625 -1.604375 0.625 0.625 0 0 1 -0.0925 -0.8787499999999999Zm-6.1 0a0.625 0.625 0 0 1 -0.0925 0.879375 5.02375 5.02375 0 0 0 -1.3025 1.596875 0.625 0.625 0 1 1 -1.11 -0.57375 6.27375 6.27375 0 0 1 1.62625 -1.9943749999999998 0.625 0.625 0 0 1 0.8787499999999999 0.0925ZM5.625 12.5h3.75a1.25 1.25 0 0 1 -1.25 1.25h-1.25a1.25 1.25 0 0 1 -1.25 -1.25Z" fill="#ffffff" stroke-width="1"/></svg>