<svg xmlns="http://www.w3.org/2000/svg" viewBox="-0.5 -0.5 16 16"><path fill="#ffffff" d="M3.4375 10.625a0.9375 0.9375 0 1 1 0 1.875 0.9375 0.9375 0 0 1 0 -1.875Zm4.0625 0a0.9375 0.9375 0 1 1 0 1.875 0.9375 0.9375 0 0 1 0 -1.875Zm4.0625 0a0.9375 0.9375 0 1 1 0 1.875 0.9375 0.9375 0 0 1 0 -1.875Zm-8.125 -4.0625a0.9375 0.9375 0 1 1 0 1.875 0.9375 0.9375 0 0 1 0 -1.875Zm4.0625 0a0.9375 0.9375 0 1 1 0 1.875 0.9375 0.9375 0 0 1 0 -1.875Zm4.0625 0a0.9375 0.9375 0 1 1 0 1.875 0.9375 0.9375 0 0 1 0 -1.875ZM3.4375 2.5a0.9375 0.9375 0 1 1 0 1.875 0.9375 0.9375 0 0 1 0 -1.875ZM7.5 2.5a0.9375 0.9375 0 1 1 0 1.875 0.9375 0.9375 0 0 1 0 -1.875Zm4.0625 0a0.9375 0.9375 0 1 1 0 1.875 0.9375 0.9375 0 0 1 0 -1.875Z" stroke-width="1"/></svg>