<svg xmlns="http://www.w3.org/2000/svg" viewBox="-0.5 -0.5 16 16"><path fill="#ffffff" d="M7.1875 2.5C5.531875 2.5 4.211875 3.9875 4.391875 5.625a0.63125 0.63125 0 0 1 -0.47375 0.68125A1.8762499999999998 1.8762499999999998 0 0 0 4.375 10h0.625a0.625 0.625 0 1 1 0 1.25H4.375a3.125 3.125 0 0 1 -1.25 -5.99 4.0625 4.0625 0 0 1 7.86625 -1.3775000000000002A3.7512499999999998 3.7512499999999998 0 0 1 10 11.25a0.625 0.625 0 1 1 0 -1.25 2.5 2.5 0 0 0 0.40937500000000004 -4.966875 0.63125 0.63125 0 0 1 -0.5062500000000001 -0.4575A2.8137499999999998 2.8137499999999998 0 0 0 7.1875 2.5Zm0.9375 5.26 0.808125 0.8075a0.625 0.625 0 0 0 0.8837499999999999 -0.885l-1.765 -1.7618749999999999a0.78125 0.78125 0 0 0 -1.10375 0l-1.765 1.7625a0.625 0.625 0 0 0 0.8837499999999999 0.884375L6.875 7.76V13.125a0.625 0.625 0 1 0 1.25 0v-5.365Z" stroke-width="1"/></svg>