<svg xmlns="http://www.w3.org/2000/svg" viewBox="-5 -5 110 110"><path d="m88.707 28.34-14.109-12.621c-0.75781-0.67578-1.9609-0.14062-1.9609 0.875v9.7617h-38.352c-3.0898 0-6.0938 0.60547-8.918 1.8008-2.7266 1.1523-5.1797 2.8047-7.2812 4.9102-2.1016 2.1016-3.7539 4.5547-4.9102 7.2812-1.1953 2.8242-1.8008 5.8281-1.8008 8.918v9.6289l5.125-5.125v-4.5039c0-9.8047 7.9766-17.785 17.785-17.785h38.355v10.359c0 1.0156 1.2031 1.5547 1.9609 0.875l14.109-12.621c0.51953-0.46875 0.51953-1.2852-0.003907-1.7539z" fill="#ffffff"/><path d="m83.5 50.738c0 9.8047-7.9766 17.785-17.785 17.785l-38.355-0.003907v-10.359c0-1.0156-1.2031-1.5547-1.9609-0.875l-14.109 12.621c-0.52344 0.46875-0.52344 1.2852 0 1.7539l14.109 12.621c0.75781 0.67578 1.9609 0.14062 1.9609-0.875v-9.7617h38.355c3.0898 0 6.0938-0.60547 8.918-1.8008 2.7266-1.1523 5.1797-2.8047 7.2812-4.9102 2.1016-2.1016 3.7539-4.5547 4.9102-7.2812 1.1953-2.8242 1.8008-5.8281 1.8008-8.918v-9.6289l-5.125 5.125z" fill="#ffffff"/></svg>