<svg xmlns="http://www.w3.org/2000/svg" viewBox="0 0 32 32"><path d="M28,3v26c0,0.5527344-0.4472656,1-1,1h-5c-0.5527344,0-1-0.4472656-1-1V3c0-0.5522461,0.4472656-1,1-1h5  C27.5527344,2,28,2.4477539,28,3z M5.6806641,2.2670898C5.3881836,1.9956055,4.9648438,1.9243164,4.6000977,2.0834961  C4.2358398,2.2421875,4,2.6020508,4,3v26c0,0.3974609,0.2358398,0.7578125,0.6000977,0.9169922  C4.7290039,29.9726563,4.8647461,30,5,30c0.2475586,0,0.4916992-0.0917969,0.6806641-0.2675781l14-12.9995117  C19.8837891,16.543457,20,16.277832,20,16s-0.1162109-0.543457-0.3193359-0.7329102L5.6806641,2.2670898z" fill="#ffffff"/></svg>