<svg xmlns="http://www.w3.org/2000/svg" viewBox="-0.5 -0.5 16 16"><g fill="none" fill-rule="evenodd"><path d="M15 0v15H0V0h15ZM7.87125 14.536249999999999l-0.0075 0.00125 -0.044375 0.021875000000000002 -0.0125 0.0025 -0.00875 -0.0025 -0.044375 -0.0225c-0.00625 -0.001875 -0.011875 0 -0.015 0.00375l-0.0025 0.00625 -0.010625 0.2675 0.003125 0.0125 0.00625 0.008125 0.065 0.04625 0.009375 0.0025 0.0075 -0.0025 0.065 -0.04625 0.0075 -0.01 0.0025 -0.010625 -0.010625 -0.266875c-0.00125 -0.00625 -0.005625 -0.010625 -0.01 -0.01125Zm0.165 -0.07062500000000001 -0.00875 0.00125 -0.11499999999999999 0.058124999999999996 -0.00625 0.00625 -0.001875 0.006874999999999999 0.01125 0.26875 0.003125 0.0075 0.005 0.005 0.12562500000000001 0.057499999999999996c0.0075 0.0025 0.014374999999999999 0 0.018125000000000002 -0.005l0.0025 -0.00875 -0.02125 -0.38375c-0.001875 -0.0075 -0.00625 -0.0125 -0.0125 -0.013749999999999998Zm-0.44687499999999997 0.00125a0.014374999999999999 0.014374999999999999 0 0 0 -0.016875 0.00375l-0.00375 0.00875 -0.02125 0.38375c0 0.0075 0.004375 0.0125 0.010625 0.015l0.009375 -0.00125 0.12562500000000001 -0.058124999999999996 0.00625 -0.005 0.001875 -0.006874999999999999 0.01125 -0.26875 -0.001875 -0.0075 -0.00625 -0.00625 -0.11499999999999999 -0.057499999999999996Z" stroke-width="1"></path><path fill="#ffffff" d="M10.991249999999999 6.25 7.5 2.758125 4.00875 6.25H5.625c0.340625 0 0.625 0.284375 0.625 0.625v5.625h2.5v-5.625a0.625 0.625 0 0 1 0.625 -0.625h1.61625Zm1.2037499999999999 -0.56375c0.6693749999999999 0.6687500000000001 0.195625 1.8137500000000002 -0.75125 1.8137500000000002H10v5a1.25 1.25 0 0 1 -1.25 1.25h-2.5a1.25 1.25 0 0 1 -1.25 -1.25v-5H3.5562500000000004c-0.9468749999999999 0 -1.420625 -1.144375 -0.75125 -1.8137500000000002l4.031874999999999 -4.033125a0.9375 0.9375 0 0 1 1.325625 0l4.0325 4.033125Z" stroke-width="1" /></g></svg>