<svg xmlns="http://www.w3.org/2000/svg" viewBox="-0.5 -0.5 16 16"><path d="M12.5 3.125a1.25 1.25 0 0 1 1.2468750000000002 1.15625l0.003125 0.09375v6.25a1.25 1.25 0 0 1 -1.15625 1.2468750000000002l-0.09375 0.003125h-6.875a0.625 0.625 0 0 1 -0.38 -0.12875l-0.0625 -0.05437499999999999l-3.148125 -3.15c-0.505625 -0.5650000000000001 -0.5293749999999999 -1.40625 -0.051875000000000004 -2.01875l0.075 -0.09l3.125 -3.125a0.625 0.625 0 0 1 0.360625 -0.1775l0.081875 -0.005625h6.875zm-4.680625 2.5875a0.625 0.625 0 0 0 -0.813125 0.920625l0.051875000000000004 0.05875l0.8075 0.808125l-0.8075 0.808125l-0.051875000000000004 0.05875a0.625 0.625 0 0 0 0.8768750000000001 0.8768750000000001l0.05875 -0.051875000000000004l0.808125 -0.8075l0.808125 0.8075l0.05875 0.051875000000000004a0.625 0.625 0 0 0 0.8768750000000001 -0.8768750000000001l-0.051875000000000004 -0.05875l-0.8075 -0.808125l0.8075 -0.808125l0.051875000000000004 -0.05875a0.625 0.625 0 0 0 -0.8768750000000001 -0.8768750000000001l-0.05875 0.051875000000000004l-0.808125 0.8075l-0.808125 -0.8075l-0.05875 -0.051875000000000004l-0.06375 -0.043750000000000004z" fill="#ffffff" stroke-width="1"/></svg>