<svg xmlns="http://www.w3.org/2000/svg" viewBox="0 0 100 100"><path fill="#ffffff" d="M85,7.5H15c-4.142,0-7.5,3.358-7.5,7.5v70c0,4.142,3.358,7.5,7.5,7.5h70c4.142,0,7.5-3.358,7.5-7.5V15   C92.5,10.858,89.142,7.5,85,7.5z M60,85H15V35h45V85z M85,85H65V35h20V85z M85,30H15V15h70V30z"/><rect x="55" y="20" fill="#ffffff" width="5" height="5"/><rect x="65" y="20" fill="#ffffff" width="5" height="5"/><rect x="75" y="20" fill="#ffffff" width="5" height="5"/><rect x="20" y="42.5" fill="#ffffff" width="35" height="5"/><rect x="20" y="52.5" fill="#ffffff" width="35" height="5"/><rect x="20" y="62.5" fill="#ffffff" width="35" height="5"/><rect x="20" y="72.5" fill="#ffffff" width="35" height="5"/></svg>