<svg xmlns="http://www.w3.org/2000/svg" viewBox="0 0 100 100" fill="none"><path d="M5 5H29V15H5V5Z" fill="#ffffff"/><path d="M5 85H29V95H5V85Z" fill="#ffffff"/><path d="M5 21H29V31H5V21Z" fill="#ffffff"/><path d="M5 37H29V47H5V37Z" fill="#ffffff"/><path d="M5 53H29V63H5V53Z" fill="#ffffff"/><path d="M5 69H29V79H5V69Z" fill="#ffffff"/><path d="M38 5H62V15H38V5Z" fill="#ffffff"/><path d="M71 5H95V15H71V5Z" fill="#ffffff"/><path d="M38 85H62V95H38V85Z" fill="#ffffff"/><path d="M71 85H95V95H71V85Z" fill="#ffffff"/><path d="M38 21H62V31H38V21Z" fill="#ffffff"/><path d="M71 21H95V31H71V21Z" fill="#ffffff"/><path d="M38 37H62V47H38V37Z" fill="#ffffff"/><path d="M71 37H95V47H71V37Z" fill="#ffffff"/><path d="M38 53H62V63H38V53Z" fill="#ffffff"/><path d="M71 53H95V63H71V53Z" fill="#ffffff"/><path d="M38 69H62V79H38V69Z" fill="#ffffff"/><path d="M71 69H95V79H71V69Z" fill="#ffffff"/></svg>