<svg xmlns="http://www.w3.org/2000/svg" viewBox="0 0 100 100"><g transform="translate(0,-952.36218)"><path d="m 7.7346779,968.36218 c -0.9407,0.087 -1.73825,0.9562 -1.73417,1.8889 0,21.3287 0,42.65732 0,63.98612 -0.0295,1.2282 1.23507,2.0302 2.12285,2.125 l 69.7850561,0 c 2.083719,-0.1343 2.37228,-0.4187 2.750739,-1.7414 l 13.275306,-44.00512 c 0.331639,-1.1175 -0.644285,-2.4124 -1.82386,-2.4202 l -11.481346,0 0,-8.5 c -1e-4,-0.989 -0.911648,-1.8888 -1.913557,-1.8889 l -39.108335,0 c -1.716786,-2.84766 -3.445472,-5.6881 -5.172585,-8.5295 -0.339319,-0.5565 -0.986448,-0.9165 -1.644468,-0.9149 -8.34704,0 -16.72167,0 -25.0556301,0 z m 2.09295,3.7778 21.8863001,0 c 1.716793,2.84766 3.44548,5.6881 5.172594,8.5295 0.33932,0.5565 0.986449,0.9165 1.644462,0.9149 12.757053,0 25.514104,0 38.271154,0 l 0,6.6111 c -17.915749,0 -35.855977,0 -53.759,0 -0.73318,0.063 -1.40572,0.582 -1.64447,1.2691 L 9.8276279,1023.022 c 0,-16.9608 0,-33.92142 0,-50.88202 z" fill="#ffffff"/></g></svg>