<svg xmlns="http://www.w3.org/2000/svg" viewBox="0 0 48 48"><path d="M41.25,10.78467H22.44336L18.36914,5.94092a1.00127,1.00127,0,0,0-.76562-.35645H3.15918a.99974.99974,0,0,0-1,1V37.82471A4.5962,4.5962,0,0,0,6.75,42.41553h34.5a4.5962,4.5962,0,0,0,4.59082-4.59082V15.375A4.59578,4.59578,0,0,0,41.25,10.78467ZM4.15918,7.58447H17.1377l2.69238,3.2002H4.15918ZM43.84082,37.82471A2.59359,2.59359,0,0,1,41.25,40.41553H6.75a2.59359,2.59359,0,0,1-2.59082-2.59082v-25.04H41.25A2.59349,2.59349,0,0,1,43.84082,15.375Z" fill="#ffffff"/></svg>