<svg xmlns="http://www.w3.org/2000/svg" viewBox="0 0 100 100"><path d="M81.585,16.22381c0-4.81138-2.924-7.40545-5.91525-7.40545-3.13185,0-6.33734,2.84376-6.33734,8.96374,0,1.85022.25152,2.48212.25152,4.5472,0,8.36017-4.88744,13.59941-9.19194,13.59941-3.38709,0-6.41324-3.244-6.41324-10.764,0-4.08326,1.115-5.89975,1.115-10.06777,0-5.99671-3.56873-9.019-6.97905-9.019-3.12044,0-6.10825,2.53033-6.10825,7.6277,0,6.97529,3.74687,4.14234,3.74687,17.90625,0,10.33215-2.68384,19.08008-4.06055,19.08008-6.37767,0-8.31666-10.60791-16.96054-10.60791-4.12188,0-6.31719,3.08134-6.31719,5.30576,0,3.22178,3.82969,5.19355,6.1125,6.08213,3.0864,1.20141,3.48881,2.28417,10.17051,10.49521,9.58846,11.78338,15.01386,3.03036,15.01386,20.90528,0,4.293-.38574,7.41807-.38574,7.63369,0,3.18671,8.834,3.41591,12.03574,3.41591,3.204,0,12.03418-.22941,12.03418-3.41591,0-3.18532-1.94687-9.543-1.94687-13.23936,0-3.41543,6.94414-13.70874,6.94414-23.68808,0-9.86267-2.01191-10.587-2.01191-12.85C76.38145,26.84766,81.585,22.85808,81.585,16.22381ZM52.94238,48.576a12.4762,12.4762,0,0,1,5.61641,2.28916c1.36987-1.022,4.7707-3.24834,7.69492-2.63193a1,1,0,0,1-.41211,1.957c-1.75874-.37046-4.12339.90454-5.59219,1.91772,2.68545,2.2022,4.99317,5.30406,4.99317,8.93081a1,1,0,1,1-2,0c0-6.25918-8.52735-10.46279-10.3002-10.46279a1,1,0,0,1,0-2Z" fill="#ffffff"/></svg>