<svg xmlns="http://www.w3.org/2000/svg" viewBox="-5 -5 110 110" fill="#ffffff">
 <path d="m16.668 50c0-18.41 14.922-33.332 33.332-33.332s33.332 14.922 33.332 33.332-14.922 33.332-33.332 33.332-33.332-14.922-33.332-33.332zm33.332-41.668c-23.012 0-41.668 18.656-41.668 41.668s18.656 41.668 41.668 41.668 41.668-18.656 41.668-41.668-18.656-41.668-41.668-41.668zm-14.555 39.258c-1.625-1.625-4.2656-1.625-5.8906 0-1.6289 1.6289-1.6289 4.2656 0 5.8945l11.488 11.488c1.6289 1.6289 4.2656 1.6289 5.8945 0l23.453-23.453c1.6289-1.625 1.6289-4.2656 0-5.8906-1.625-1.6289-4.2656-1.6289-5.8906 0l-20.508 20.508z" fill-rule="evenodd"/>
</svg>