<svg xmlns="http://www.w3.org/2000/svg" viewBox="-0.5 -0.5 16 16"><path fill="#ffffff" d="m8.311875 1.9675 5.39625 9.346250000000001a0.9375 0.9375 0 0 1 -0.8118749999999999 1.40625H2.1037500000000002a0.9375 0.9375 0 0 1 -0.8118749999999999 -1.40625l5.39625 -9.346250000000001c0.360625 -0.625 1.2625 -0.625 1.6237499999999998 0ZM7.5 3.06125 2.645 11.47h9.709999999999999L7.5 3.06125ZM7.5 9.375a0.625 0.625 0 1 1 0 1.25 0.625 0.625 0 0 1 0 -1.25Zm0 -4.375a0.625 0.625 0 0 1 0.625 0.625v2.5a0.625 0.625 0 1 1 -1.25 0V5.625a0.625 0.625 0 0 1 0.625 -0.625Z" stroke-width="1"/></svg>