<svg xmlns="http://www.w3.org/2000/svg" viewBox="-0.5 -0.5 16 16"><path fill="#ffffff" d="M3.125 1.875a1.25 1.25 0 0 0 -1.25 1.25v8.75a1.25 1.25 0 0 0 1.25 1.25h8.75a1.25 1.25 0 0 0 1.25 -1.25V3.125a1.25 1.25 0 0 0 -1.25 -1.25H3.125Zm0 1.25h8.75v8.75H3.125V3.125Zm7.46875 2.996875a0.625 0.625 0 1 0 -0.8837499999999999 -0.8837499999999999l-3.09375 3.09375 -1.325625 -1.325625a0.625 0.625 0 0 0 -0.884375 0.8837499999999999l1.72375 1.72375a0.6875 0.6875 0 0 0 0.9725 0l3.49125 -3.491875Z" stroke-width="1"/></svg>