<svg xmlns="http://www.w3.org/2000/svg" viewBox="-0.5 -0.5 16 16"><path fill="#ffffff" d="M7.5 1.25c3.451875 0 6.25 2.798125 6.25 6.25s-2.798125 6.25 -6.25 6.25S1.25 10.951875 1.25 7.5 4.048125000000001 1.25 7.5 1.25Zm0 1.25a5 5 0 1 0 0 10 5 5 0 0 0 0 -10Zm-0.00625 3.75c0.34875 0 0.63125 0.28250000000000003 0.63125 0.63125v3.2024999999999997A0.625 0.625 0 0 1 7.8125 11.25h-0.30625A0.63125 0.63125 0 0 1 6.875 10.618749999999999V7.5a0.625 0.625 0 1 1 0 -1.25h0.61875ZM7.5 4.375a0.625 0.625 0 1 1 0 1.25 0.625 0.625 0 0 1 0 -1.25Z" stroke-width="1"/></svg>