<svg xmlns="http://www.w3.org/2000/svg" viewBox="-0.5 -0.5 16 16"><path d="M11.875 1.875a1.25 1.25 0 0 1 1.2468750000000002 1.15625L13.125 3.125v6.25a1.25 1.25 0 0 1 -1.15625 1.2468750000000002L11.875 10.625h-1.25v1.25a1.25 1.25 0 0 1 -1.15625 1.2468750000000002L9.375 13.125H3.125a1.25 1.25 0 0 1 -1.2468750000000002 -1.15625L1.875 11.875V5.625a1.25 1.25 0 0 1 1.15625 -1.2468750000000002L3.125 4.375h1.25V3.125a1.25 1.25 0 0 1 1.15625 -1.2468750000000002L5.625 1.875h6.25Zm-2.5 3.75H3.125v6.25h6.25V5.625Zm2.5 -2.5H5.625v1.25h3.75l0.09375 0.003125a1.25 1.25 0 0 1 1.1525 1.1487500000000002L10.625 5.625v3.75h1.25V3.125Z" fill="#ffffff" stroke-width="1"/></svg>