<svg xmlns="http://www.w3.org/2000/svg" viewBox="-0.5 -0.5 16 16"><path d="M11.875 11.875a0.625 0.625 0 0 1 0.07312500000000001 1.245625L11.875 13.125h-4.375a0.625 0.625 0 0 1 -0.07312500000000001 -1.245625L7.5 11.875h4.375ZM10.06 2.7300000000000004a1.5625 1.5625 0 0 1 2.285625 2.128125l-0.07625 0.08125L5.459375 11.75a0.9375 0.9375 0 0 1 -0.2 0.1525l-0.075 0.0375 -2.3775 1.08125c-0.505 0.229375 -1.02375 -0.260625 -0.853125 -0.765625l0.025 -0.0625 1.08125 -2.3781250000000003a0.9375 0.9375 0 0 1 0.133125 -0.21250000000000002l0.056249999999999994 -0.0625L10.060625000000002 2.7300000000000004Zm1.325625 0.8837499999999999a0.3125 0.3125 0 0 0 -0.39875 -0.035625000000000004l-0.043125000000000004 0.035625000000000004L4.17375 10.383750000000001l-0.368125 0.8106249999999999 0.81 -0.36874999999999997L11.385625 4.05625a0.3125 0.3125 0 0 0 0 -0.4425Z" fill="#ffffff" stroke-width="1"/></svg>