<svg xmlns="http://www.w3.org/2000/svg" viewBox="-0.5 -0.5 16 16"><path d="M10 8.75a3.125 3.125 0 0 1 3.121875 2.9893750000000003L13.125 11.875v0.625a1.25 1.25 0 0 1 -1.15625 1.2468750000000002L11.875 13.75H3.125a1.25 1.25 0 0 1 -1.2468750000000002 -1.15625L1.875 12.5v-0.625a3.125 3.125 0 0 1 2.9893750000000003 -3.121875L5 8.75h5Zm0 1.25H5a1.875 1.875 0 0 0 -1.8718750000000002 1.765L3.125 11.875v0.625h8.75v-0.625a1.875 1.875 0 0 0 -1.765 -1.8718750000000002L10 10ZM7.5 1.25a3.125 3.125 0 1 1 0 6.25 3.125 3.125 0 0 1 0 -6.25Zm0 1.25a1.875 1.875 0 1 0 0 3.75 1.875 1.875 0 0 0 0 -3.75Z" fill="#ffffff" stroke-width="1"/></svg>