<svg xmlns="http://www.w3.org/2000/svg" version="1.1" viewBox="-5.0 -5.0 110.0 110.0"><path fill="#ffffff" d="m37.5 36.457h12.5c4.0273 0 7.293 4.0273 7.293 7.293v12.5c0 4.0273-3.2656 7.293-7.293 7.293h-12.5c-4.0273 0-7.293-4.0273-7.293-7.293v-12.5c0-4.0273 3.2656-7.293 7.293-7.293z"/><path fill="#ffffff" d="m50 5.207h12.5c4.0273 0 7.293 4.0273 7.293 7.293v12.5c0 4.0273-3.2656 7.293-7.293 7.293h-12.5c-4.0273 0-7.293-4.0273-7.293-7.293v-12.5c0-4.0273 3.2656-7.293 7.293-7.293z"/><path fill="#ffffff" d="m50 67.707h12.5c4.0273 0 7.293 4.0273 7.293 7.293v12.5c0 4.0273-3.2656 7.293-7.293 7.293h-12.5c-4.0273 0-7.293-4.0273-7.293-7.293v-12.5c0-4.0273 3.2656-7.293 7.293-7.293z"/><path fill="#ffffff" d="m29.168 26.043c-0.79297 0-1.582-0.29297-2.207-0.91797-1.207-1.207-1.207-3.207 0-4.418l4.043-4.043-4.043-4.043c-1.207-1.207-1.207-3.207 0-4.418 1.207-1.207 3.207-1.207 4.418 0l6.25 6.25c1.207 1.207 1.207 3.207 0 4.418l-6.25 6.25c-0.625 0.625-1.418 0.91797-2.207 0.91797z"/><path fill="#ffffff" d="m31.25 19.793h-22.918c-1.707 0-3.125-1.418-3.125-3.125s1.418-3.125 3.125-3.125h22.918c1.707 0 3.125 1.418 3.125 3.125s-1.418 3.125-3.125 3.125z"/><path fill="#ffffff" d="m85.418 90.625c-0.79297 0-1.582-0.29297-2.207-0.91797-1.207-1.207-1.207-3.207 0-4.418l4.043-4.043-4.043-4.043c-1.207-1.207-1.207-3.207 0-4.418 1.207-1.207 3.207-1.207 4.418 0l6.25 6.25c1.207 1.207 1.207 3.207 0 4.418l-6.25 6.25c-0.625 0.625-1.418 0.91797-2.207 0.91797z"/><path fill="#ffffff" d="m87.5 84.375h-20.832c-1.707 0-3.125-1.418-3.125-3.125s1.418-3.125 3.125-3.125h20.832c1.707 0 3.125 1.418 3.125 3.125s-1.418 3.125-3.125 3.125z"/><path fill="#ffffff" d="m70.832 59.375c-0.79297 0-1.582-0.29297-2.207-0.91797l-6.25-6.25c-1.207-1.207-1.207-3.207 0-4.418l6.25-6.25c1.207-1.207 3.207-1.207 4.418 0 1.207 1.207 1.207 3.207 0 4.418l-4.043 4.043 4.043 4.043c1.207 1.207 1.207 3.207 0 4.418-0.625 0.625-1.418 0.91797-2.207 0.91797z"/><path fill="#ffffff" d="m79.168 53.125h-10.418c-1.707 0-3.125-1.418-3.125-3.125s1.418-3.125 3.125-3.125h10.418c5.168 0 9.375-4.207 9.375-9.375v-8.332c0-5.168-4.207-9.375-9.375-9.375-1.707 0-3.125-1.418-3.125-3.125s1.418-3.125 3.125-3.125c8.625 0 15.625 7 15.625 15.625v8.332c0 8.625-7 15.625-15.625 15.625z"/><path fill="#ffffff" d="m29.168 90.625c-0.79297 0-1.582-0.29297-2.207-0.91797-1.207-1.207-1.207-3.207 0-4.418l4.043-4.043-4.043-4.043c-1.207-1.207-1.207-3.207 0-4.418 1.207-1.207 3.207-1.207 4.418 0l6.25 6.25c1.207 1.207 1.207 3.207 0 4.418l-6.25 6.25c-0.625 0.625-1.418 0.91797-2.207 0.91797z"/><path fill="#ffffff" d="m31.25 84.375h-10.418c-8.625 0-15.625-7-15.625-15.625v-6.25c0-8.625 7-15.625 15.625-15.625h12.5c1.707 0 3.125 1.418 3.125 3.125s-1.418 3.125-3.125 3.125h-12.5c-5.168 0-9.375 4.207-9.375 9.375v6.25c0 5.168 4.207 9.375 9.375 9.375h10.418c1.707 0 3.125 1.418 3.125 3.125s-1.418 3.125-3.125 3.125z"/></svg>