<svg xmlns="http://www.w3.org/2000/svg" viewBox="-0.5 -0.5 16 16"><path d="M5 1.875a0.625 0.625 0 0 1 0.07312500000000001 1.245625L5 3.125H4.375a0.625 0.625 0 0 0 -0.620625 0.551875L3.75 3.75v2.5c0 0.48 -0.18062499999999998 0.91875 -0.47750000000000004 1.25 0.2675 0.29874999999999996 0.43999999999999995 0.683125 0.471875 1.1075L3.75 8.75v2.5a0.625 0.625 0 0 0 0.551875 0.620625L4.375 11.875h0.625a0.625 0.625 0 0 1 0.07312500000000001 1.245625L5 13.125H4.375a1.875 1.875 0 0 1 -1.8718750000000002 -1.765L2.5 11.25v-2.5a0.625 0.625 0 0 0 -0.551875 -0.620625L1.875 8.125a0.625 0.625 0 0 1 -0.07312500000000001 -1.245625L1.875 6.875a0.625 0.625 0 0 0 0.620625 -0.551875L2.5 6.25V3.75a1.875 1.875 0 0 1 1.765 -1.8718750000000002L4.375 1.875h0.625Zm5.625 0a1.875 1.875 0 0 1 1.8718750000000002 1.765L12.5 3.75v2.5a0.625 0.625 0 0 0 0.551875 0.620625L13.125 6.875a0.625 0.625 0 0 1 0.07312500000000001 1.245625L13.125 8.125a0.625 0.625 0 0 0 -0.620625 0.551875L12.5 8.75v2.5a1.875 1.875 0 0 1 -1.765 1.8718750000000002L10.625 13.125h-0.625a0.625 0.625 0 0 1 -0.07312500000000001 -1.245625L10 11.875h0.625a0.625 0.625 0 0 0 0.620625 -0.551875L11.25 11.25v-2.5c0 -0.48 0.18062499999999998 -0.91875 0.47750000000000004 -1.25a1.8675 1.8675 0 0 1 -0.471875 -1.1075L11.25 6.25V3.75a0.625 0.625 0 0 0 -0.551875 -0.620625L10.625 3.125h-0.625a0.625 0.625 0 0 1 -0.07312500000000001 -1.245625L10 1.875h0.625Z" fill="#ffffff" stroke-width="1"/></svg>