<svg xmlns="http://www.w3.org/2000/svg" viewBox="-0.5 -0.5 16 16"><path d="M6.7325 1.6800000000000002a1.25 1.25 0 0 1 1.448125 -0.061875l0.08687500000000001 0.0625 5.24 4.074999999999999c0.450625 0.350625 0.23125 1.0574999999999999 -0.311875 1.1156249999999999l-0.07250000000000001 0.00375H12.5v5a1.25 1.25 0 0 1 -1.15625 1.2468750000000002L11.25 13.125H3.75a1.25 1.25 0 0 1 -1.24625 -1.15625L2.5 11.875v-5h-0.623125C1.30625 6.875 1.044375 6.182499999999999 1.4375 5.803125l0.05499999999999999 -0.0475 5.24 -4.074999999999999ZM7.5 2.666875 3.515625 5.765625c0.143125 0.115625 0.234375 0.29250000000000004 0.234375 0.49062500000000003V11.875h1.875v-3.125a1.875 1.875 0 1 1 3.75 0v3.125h1.875v-5.61875c0 -0.198125 0.09125 -0.375 0.234375 -0.49062500000000003L7.5 2.666875ZM7.5 8.125a0.625 0.625 0 0 0 -0.625 0.625v3.125h1.25v-3.125a0.625 0.625 0 0 0 -0.625 -0.625Z" fill="#ffffff" stroke-width="1"/></svg>