<svg xmlns="http://www.w3.org/2000/svg" viewBox="-0.5 -0.5 16 16"><path fill="#ffffff" d="M7.5 7.5c1.1705625 0 2.2316875 0.38725000000000004 3.009125 0.9293750000000001C11.2488125 8.9451875 11.875 9.7113125 11.875 10.5356875c0 0.45275000000000004 -0.192875 0.8275 -0.4971875 1.1066875 -0.2863125 0.2626875 -0.6601250000000001 0.433 -1.0451249999999999 0.5495C9.563125 12.4248125 8.5501875 12.5 7.5 12.5c-1.0501874999999998 0 -2.06310625 -0.0751875 -2.83269375 -0.308125 -0.385 -0.1165 -0.7588375 -0.28681249999999997 -1.04514375 -0.5495C3.31788125 11.3631875 3.125 10.9884375 3.125 10.5356875c0 -0.824375 0.6261937500000001 -1.5905 1.36584375 -2.1063125C5.268281249999999 7.88725 6.3294375 7.5 7.5 7.5Zm0 1.25c-0.9005000000000001 0 -1.71435 0.300375 -2.29415 0.7046874999999999C4.588275 9.885375 4.375 10.324625000000001 4.375 10.5356875c0 0.189908625 0.22003003125 0.308912375 0.42024303125 0.38378450000000003l0.12790741249999998 0.0436705625L5.02939375 10.9955C5.6170374999999995 11.173312500000002 6.479125 11.25 7.5 11.25c0.9423461249999999 0 1.74937275 -0.06534318750000001 2.330186875 -0.21525031249999999l0.18986318750000003 -0.0541244375 0.119045875 -0.037793625C10.353365375000001 10.87016975 10.625 10.746697125 10.625 10.5356875c0 -0.2110625 -0.21325 -0.6503125 -0.8308749999999999 -1.081C9.214375 9.050375 8.4005 8.75 7.5 8.75Zm4.375 -0.625c0.6528125 0 1.2451875 0.2153125 1.6833125 0.520875 0.400375 0.2791875 0.8166875 0.7439374999999999 0.8166875 1.3095 0 0.834828125 -0.8104951250000001 1.13327625 -1.5392738750000001 1.2375966250000001l-0.18767581249999998 0.023035375000000004 -0.1804486875 0.0155783125c-0.0292769375 0.0020499999999999997 -0.0581060625 0.0038455 -0.08641412500000001 0.005414687499999999 0.0764375 -0.2155 0.11881249999999999 -0.4500625 0.11881249999999999 -0.7013125 0 -0.19093749999999998 -0.02375 -0.3761875 -0.0670625 -0.5548125 0.241625 -0.018500000000000003 0.4396875 -0.050187499999999996 0.5868749999999999 -0.09475 0.0649125 -0.01965 0.00585 -0.08092500000000001 -0.062262000000000005 -0.13410450000000002l-0.066872 -0.048639499999999995L12.8433125 9.6711875c-0.1651875 -0.1151875 -0.3796875 -0.211875 -0.621875 -0.261125 -0.23800000000000002 -0.4749375 -0.60275 -0.8864375 -0.9915 -1.2144375 0.2054375 -0.0454375 0.4216875 -0.07062500000000001 0.6450625 -0.07062500000000001ZM3.125 8.125c0.22334375 0 0.43962500000000004 0.0251875 0.6450687500000001 0.07062500000000001 -0.38875 0.328 -0.7535312500000001 0.7395 -0.991525 1.2144375 -0.24216875 0.049249999999999995 -0.45669375 0.1459375 -0.6218625 0.261125l-0.07994986875 0.0551480625C1.997479875 9.78361875 1.9044743750000002 9.863199999999999 1.9802187500000001 9.886125c0.14714375 0.044562500000000005 0.34519374999999997 0.07625 0.5868249999999999 0.09475 -0.043306250000000004 0.178625 -0.06704375 0.36387500000000006 -0.06704375 0.5548125 0 0.25125000000000003 0.04239375 0.4858125 0.11879374999999999 0.7013125l-0.17550903125 -0.012356125 -0.18449739999999998 -0.0191380625C1.5075142875 11.1135893125 0.625 10.8265 0.625 9.955375c0 -0.5655625 0.41632500000000006 -1.0303125 0.81666875 -1.3095C1.8798000000000001 8.3403125 2.4721937499999997 8.125 3.125 8.125Zm8.4375 -3.75C12.425437500000001 4.375 13.125 5.07455625 13.125 5.9375c0 0.8629375 -0.6995625 1.5625 -1.5625 1.5625S10 6.800437499999999 10 5.9375C10 5.07455625 10.699562499999999 4.375 11.5625 4.375Zm-8.125 0C4.3004437499999995 4.375 5 5.07455625 5 5.9375 5 6.800437499999999 4.3004437499999995 7.5 3.4375 7.5S1.875 6.800437499999999 1.875 5.9375C1.875 5.07455625 2.57455625 4.375 3.4375 4.375ZM7.5 1.875c1.3806874999999998 0 2.5 1.1192875 2.5 2.5s-1.1193125 2.5 -2.5 2.5c-1.3807125 0 -2.5 -1.1192875 -2.5 -2.5s1.1192875 -2.5 2.5 -2.5Zm4.0625 3.75c-0.1725625 0 -0.3125 0.1399125 -0.3125 0.3125s0.1399375 0.3125 0.3125 0.3125 0.3125 -0.1399125 0.3125 -0.3125 -0.1399375 -0.3125 -0.3125 -0.3125Zm-8.125 0c-0.1725875 0 -0.3125 0.1399125 -0.3125 0.3125s0.1399125 0.3125 0.3125 0.3125 0.3125 -0.1399125 0.3125 -0.3125 -0.1399125 -0.3125 -0.3125 -0.3125ZM7.5 3.125c-0.690375 0 -1.25 0.55964375 -1.25 1.25s0.559625 1.25 1.25 1.25 1.25 -0.55964375 1.25 -1.25 -0.559625 -1.25 -1.25 -1.25Z" stroke-width="1"/></svg>