<svg xmlns="http://www.w3.org/2000/svg" viewBox="-5 -5 110 110" fill="#ffffff"><path d="m87 10h-74c-1.6484 0-3 1.3516-3 3v30c0 1.6484 1.3516 3 3 3h7.0312v2.4883h-7.0312c-1.6484 0-3 1.3516-3 3v30c0 1.6484 1.3516 3 3 3h5.4102l1.6797 4.8398c0.14062 0.39844 0.51953 0.67188 0.94141 0.67188h4c0.42969 0 0.80859-0.26953 0.94922-0.67188l1.6719-4.8398h44.691l1.6797 4.8398c0.14062 0.39844 0.51953 0.67188 0.94141 0.67188h4c0.42969 0 0.80859-0.26953 0.94922-0.67188l1.6719-4.8398h5.4219c1.6484 0 3-1.3516 3-3v-30c0-1.6484-1.3516-3-3-3h-7.0391v-2.4883h7.0391c1.6484 0 3-1.3516 3-3l-0.007812-30c0-1.6484-1.3516-3-3-3zm-3 44.488v24h-68v-24zm-57.969-6v-2.4883h47.93v2.4883zm57.969-8.4883h-68v-24h68z"/><path d="m38 37h24c1.1094 0 2-0.89844 2-2v-14c0-1.1016-0.89062-2-2-2h-24c-1.1016 0-2 0.89844-2 2v14c0 1.1016 0.89844 2 2 2zm2-14h20v10h-3.25v-6.2617c0-0.55078-0.44922-1-1-1s-1 0.44922-1 1v6.2617h-1.8281v-5c0-0.55078-0.44922-1-1-1s-1 0.44922-1 1v5h-1.8281v-2.7383c0-0.55859-0.44922-1-1-1s-1 0.44141-1 1v2.7383h-1.8281v-6.2617c0-0.55078-0.44922-1-1-1s-1 0.44922-1 1v6.2617h-3.2617v-10z"/><path d="m28.949 28c0 5.332-8 5.332-8 0s8-5.332 8 0"/><path d="m79.051 28c0 5.332-8 5.332-8 0s8-5.332 8 0"/><path d="m20.922 75.488h22.16c0.83984 0 1.5195-0.67969 1.5195-1.5195v-14.961c0-0.83984-0.67969-1.5195-1.5195-1.5195h-22.16c-0.83984 0-1.5195 0.67969-1.5195 1.5195v14.961c0 0.83984 0.67969 1.5195 1.5195 1.5195zm0.21875-3.1289c0.82031-5.3906 5.3711-9.5117 10.859-9.5117s10.039 4.1211 10.871 9.5117c0.14062 0.92969-0.57031 1.7695-1.5117 1.7695h-8.3711s-0.03125-0.078125-0.050781-0.12109l-3.2383-6.0898 1.25 6.2109h-8.3086c-0.94141 0-1.6484-0.83984-1.5-1.7695z"/><path d="m49.398 73.57h1.0117c0.039063 1.0586 0.92188 1.9219 1.9883 1.9219 1.0703 0 1.9492-0.85938 1.9883-1.9219h1.0117c1.6602 0 3-1.3516 3-3 0-1.6484-1.3398-3-3-3h-1v-8.0781c0-1.1016-0.89063-2-2-2-1.1094 0-2 0.89844-2 2v8.0781h-1c-1.6484 0-3 1.3516-3 3 0 1.6484 1.3516 3 3 3zm0-4h6c0.55078 0 1 0.44922 1 1 0 0.55078-0.44141 1-1 1h-6c-0.55078 0-1-0.44922-1-1 0-0.55078 0.44922-1 1-1z"/><path d="m61.5 65.398h1v8.0898c0 1.1016 0.89844 2 2 2s2-0.89844 2-2v-8.0898h1c1.6602 0 3-1.3516 3-3 0-1.6484-1.3398-3-3-3h-1.0117c-0.050781-1.0586-0.92188-1.9102-1.9883-1.9102-1.0703 0-1.9414 0.85156-1.9883 1.9102h-1.0117c-1.6484 0-3 1.3516-3 3 0 1.6484 1.3516 3 3 3zm0-4h6c0.55078 0 1 0.44922 1 1 0 0.55078-0.44922 1-1 1h-6c-0.55078 0-1-0.44922-1-1 0-0.55078 0.44922-1 1-1z"/><path d="m73.602 69.488h1v4c0 1.1016 0.89063 2 2 2 1.1094 0 2-0.89844 2-2v-4h1c1.6602 0 3-1.3516 3-3 0-1.6484-1.3398-3-3-3h-1v-4c0-1.1016-0.89844-2-2-2-1.1016 0-2 0.89844-2 2v4h-1c-1.6484 0-3 1.3516-3 3 0 1.6484 1.3516 3 3 3zm0-4h6c0.55078 0 1 0.44922 1 1s-0.44922 1-1 1h-6c-0.55078 0-1-0.44922-1-1s0.44922-1 1-1z"/></svg>