<svg xmlns="http://www.w3.org/2000/svg" viewBox="-0.5 -0.5 16 16"><path d="M9.548124999999999 12.004999999999999a0.625 0.625 0 0 1 0.684375 0.470625l0.013125000000000001 0.07187500000000001 0.0625 0.5a0.625 0.625 0 0 1 -1.2268750000000002 0.226875l-0.013125000000000001 -0.07187500000000001 -0.0625 -0.5a0.625 0.625 0 0 1 0.541875 -0.6975Zm-6.1187499999999995 -0.61375a0.625 0.625 0 0 1 0.274375 0.78375l-0.031875 0.065625 -0.3125 0.5625a0.625 0.625 0 0 1 -1.124375 -0.540625l0.03125 -0.065625 0.3125 -0.5625a0.625 0.625 0 0 1 0.8500000000000001 -0.24375000000000002ZM9.981250000000001 10.475000000000001l0.013125000000000001 0.07187500000000001 0.0625 0.5a0.625 0.625 0 0 1 -1.2268750000000002 0.226875l-0.013125000000000001 -0.07187500000000001 -0.0625 -0.5a0.625 0.625 0 0 1 1.2268750000000002 -0.226875Zm-5.303750000000001 -1.3343749999999999a0.625 0.625 0 0 1 0.275 0.78375l-0.03125 0.065625 -0.3125 0.5625a0.625 0.625 0 0 1 -1.125 -0.540625l0.031875 -0.06625 0.3125 -0.5625a0.625 0.625 0 0 1 0.8500000000000001 -0.2425ZM8.46875 2.02375l0.155 0.0375 0.040625 0.010625a3.3637499999999996 3.3637499999999996 0 0 1 2.345625 2.2643750000000002c0.8118749999999999 0.4475 1.4949999999999999 0.9725 1.9562499999999998 1.5393750000000002 0.47125 0.57875 0.7806250000000001 1.295625 0.5825 2.034375 -0.141875 0.53 -0.5093749999999999 0.92375 -0.95625 1.196875 -0.44437499999999996 0.27125 -0.9975 0.44499999999999995 -1.59875 0.54 -1.205625 0.19 -2.7262500000000003 0.083125 -4.290625 -0.335625 -1.565 -0.41937500000000005 -2.9349999999999996 -1.0875 -3.88375 -1.855 -0.47375 -0.3825 -0.86625 -0.809375 -1.115 -1.2662499999999999 -0.250625 -0.460625 -0.37187499999999996 -0.985625 -0.22999999999999998 -1.515 0.20125 -0.75 0.8418749999999999 -1.21875 1.5531249999999999 -1.4825 0.67625 -0.25125000000000003 1.51875 -0.36187499999999995 2.4325 -0.34375a3.3637499999999996 3.3637499999999996 0 0 1 3.00875 -0.8250000000000001ZM4.679375 4.11875c-0.479375 0.038125 -0.890625 0.12375 -1.216875 0.245 -0.53125 0.1975 -0.729375 0.44375 -0.7806250000000001 0.63375 -0.036875 0.1375 -0.02375 0.32937500000000003 0.12062500000000001 0.59375 0.14625000000000002 0.26875 0.41000000000000003 0.5750000000000001 0.8025 0.8925 0.78375 0.63375 1.985 1.234375 3.42125 1.61875 1.43625 0.385 2.7768749999999995 0.465625 3.7725 0.30874999999999997 0.49875 -0.078125 0.880625 -0.21250000000000002 1.141875 -0.37124999999999997 0.25625 -0.1575 0.36374999999999996 -0.316875 0.400625 -0.45375 0.05 -0.1875 0.004375 -0.49375 -0.34437500000000004 -0.9225 -0.22249999999999998 -0.273125 -0.54125 -0.55875 -0.94625 -0.8375 -0.24375000000000002 0.7887500000000001 -0.9275 1.41875 -1.9025 1.36125A9.015625 9.015625 0 0 1 5.646875 6.25c-0.873125 -0.4375 -1.15125 -1.3250000000000002 -0.9675 -2.13125Zm1.38125 -0.075c-0.335625 0.44875 -0.18875 0.9199999999999999 0.14625000000000002 1.0875a7.765625 7.765625 0 0 0 3.0149999999999997 0.808125c0.37374999999999997 0.0225 0.7368750000000001 -0.3125 0.670625 -0.869375a2.11375 2.11375 0 0 0 -1.43375 -1.75625l-0.15875 -0.045625a2.1131249999999997 2.1131249999999997 0 0 0 -2.23875 0.775Z" fill="#ffffff" stroke-width="1"/></svg>