<svg xmlns="http://www.w3.org/2000/svg" viewBox="-5 -5 110 110" fill="#ffffff"><path d="m63 34.5c0.6875 0 1.2891 0.46875 1.457 1.1367l1 4c0.19922 0.80469-0.28906 1.6172-1.0938 1.8164-0.80469 0.20312-1.6172-0.28516-1.8164-1.0898l-0.71484-2.8633h-10.332v25h4.5c0.82812 0 1.5 0.67188 1.5 1.5s-0.67188 1.5-1.5 1.5h-12c-0.82812 0-1.5-0.67188-1.5-1.5s0.67188-1.5 1.5-1.5h4.5v-25h-10.328l-0.71484 2.8633c-0.20312 0.80469-1.0156 1.293-1.8203 1.0898-0.80469-0.19922-1.293-1.0117-1.0898-1.8164l1-4c0.16406-0.66797 0.76562-1.1367 1.4531-1.1367z"/></svg>