<svg xmlns="http://www.w3.org/2000/svg" viewBox="0 0 100 100"><path d="M91.902,68.895V55.459c0-7.199-2.668-14.688-13.649-14.688c-4.522,0-8.825,1.258-11.8,3.191l1.486,4.297   c2.525-1.63,6.006-2.667,9.354-2.667c7.342,0,8.159,5.34,8.159,8.311v0.744c-13.876-0.078-21.595,4.67-21.595,13.355   c0,5.188,3.705,10.309,10.982,10.309c5.124,0,8.977-2.517,10.982-5.34h0.216l0.522,4.531H92.5   C92.055,75.051,91.902,72.002,91.902,68.895z M85.594,65.409c0,0.665-0.142,1.403-0.361,2.075c-1.039,3.043-4.01,6.004-8.688,6.004   c-3.338,0-6.162-2.006-6.162-6.233c0-6.976,8.096-8.231,15.211-8.081V65.409z" fill="#ffffff"/><path d="M29.438,21.689L7.5,78.311h9.949l5.605-15.143h23.127l5.785,15.143h10.372L39.377,21.689H29.438z M25.777,55.439   l5.441-14.875c1.074-2.837,2.094-6.01,3.062-9.526c0.624,1.933,1.841,5.417,3.65,10.459l5.275,13.942H25.777z" fill="#ffffff"/></svg>