<svg xmlns="http://www.w3.org/2000/svg" viewBox="-5 -5 110 110"><path d="m83.746 95.602h-67.492c-1.3242 0-2.3984-1.0742-2.3984-2.3984l-0.003907-71.754 0.74219-1.7383 15.09-14.977c0.35547-0.21094 0.77344-0.33594 1.2188-0.33594h52.848c1.3242 0 2.3984 1.0742 2.3984 2.3984v86.402c0 1.3242-1.0742 2.4023-2.4023 2.4023zm-53.723-56.031v4.8008h39.949v-4.8008zm0 30.113v4.8008h26.867v-4.8008zm0-15.059v4.8008h39.949v-4.8008zm-7.9766-35.574h6.4531v-6.4531zm-3.3945 71.75h62.695v-81.602h-48.047v12.25c0 1.3242-1.0742 2.3984-2.3984 2.3984h-12.25z" fill="#ffffff"/></svg>