<svg xmlns="http://www.w3.org/2000/svg" viewBox="-5 -5 110 110" fill="#ffffff"><path d="m28.691 36.422c1.6484-1.5703 4.5117-3.4102 9.3594-4.3906h0.011719c0.03125 0 0.070312-0.019531 0.10938-0.019531 2.6484-0.51953 5.8906-0.78906 9.8281-0.62891 1.3203 0.050782 2.6602 0.050782 3.9805 0 3.9492-0.16016 7.1914 0.10938 9.8398 0.62891 0.039063 0 0.070313 0.011719 0.10938 0.019531h0.011718c4.8516 0.98047 7.7188 2.8086 9.3594 4.3789-0.089843-2.1016-0.73828-5.0898-2.7109-9.1406-2.4688-4.8516-10.391-17.391-17.371-17.27-0.82031 0.011719-1.6484 0.011719-2.4688 0h-0.10156c-6.9492 0-14.809 12.441-17.27 17.27-1.9609 4.0586-2.6211 7.0391-2.7109 9.1484z"/><path d="m70.41 40.648c0.078125-0.10156 0.26953-0.39063 0.46094-0.89063 0.011718-0.03125 0.019531-0.058593 0.03125-0.078124h-0.078125c-0.37891-0.60938-1.2695-1.7695-3.0703-2.8906-1.1094-0.69141-2.6797-1.4219-4.8281-1.9883-0.039062 1.7109-0.32031 3.3516-0.80859 4.8789-0.21875 0.71094-0.48828 1.3906-0.80078 2.0508h7.7109l1.3906-1.0703z"/><path d="m37.09 34.801c-2.1602 0.57031-3.7188 1.3008-4.8398 1.9883-1.8086 1.1211-2.6914 2.2812-3.0703 2.8906h-0.078126s0.019532 0.058593 0.03125 0.089843c0.19141 0.5 0.37891 0.78125 0.46094 0.89062l1.3906 1.0703h7.7109c-0.30859-0.64844-0.57812-1.3398-0.80078-2.0508-0.48047-1.5312-0.76172-3.1719-0.80078-4.8789z"/><path d="m20.359 55.449-2.6016 14.691c-0.26172 1.4414 0.35156 2.8984 1.5508 3.7305l7.2812 5.0703v-21.559c0-2.1016 1.7109-3.8086 3.8086-3.8086h11.871l-11.551-8.9297-9.2305 8.75c-0.57812 0.55078-0.96875 1.2812-1.1094 2.0703z"/><path d="m82.25 70.141-2.6094-14.691c-0.14062-0.78125-0.53125-1.5195-1.1094-2.0703l-9.2305-8.7617-11.551 8.9414h11.871c2.1016 0 3.8086 1.7109 3.8086 3.8086v21.5l7.2812-5.0117c1.1914-0.82812 1.8008-2.2891 1.5391-3.7188z"/><path d="m53.699 53.57 12.121-9.3711h-5.9609c-2.3711 3.3203-5.9102 5.4297-9.8594 5.4297s-7.4883-2.1094-9.8594-5.4297h-5.9609l12.121 9.3711h7.4102z"/><path d="m41.469 41.719c0.25 0.42969 0.51953 0.85156 0.80859 1.2383 0.32812 0.44141 0.67969 0.85938 1.0586 1.2383 1.8086 1.8398 4.1289 2.9492 6.6602 2.9492s4.8516-1.1094 6.6602-2.9492c0.37109-0.37891 0.73047-0.80078 1.0508-1.2383 0.28906-0.39062 0.55859-0.80078 0.80859-1.2383 0.37109-0.64062 0.69141-1.3281 0.96875-2.0508 0.60938-1.6211 0.94922-3.4297 0.94922-5.3281v-0.070313c-2.2617-0.37109-5.0195-0.55859-8.3516-0.42969-1.3906 0.058594-2.7891 0.058594-4.1797 0-3.3281-0.14062-6.0781 0.050781-8.3398 0.42969v0.070313c0 1.8984 0.33984 3.7109 0.94922 5.3281 0.26953 0.71875 0.58984 1.4102 0.96094 2.0508z"/><path d="m24.398 86.672c0 1.8398 1.5 3.3281 3.3281 3.3281h44.531c1.8398 0 3.3281-1.5 3.3281-3.3281 0-0.66016-0.53125-1.1914-1.1914-1.1914h-48.805c-0.66016 0-1.1914 0.53125-1.1914 1.1914z"/><path d="m29.051 57.379v25.629h41.898v-25.629c0-0.73828-0.60156-1.3281-1.3281-1.3281h-39.242c-0.73047 0-1.3281 0.60156-1.3281 1.3281zm20.949 6.7812c2.9609 0 5.3594 2.3984 5.3594 5.3594 0 2.9609-2.4102 5.3594-5.3594 5.3594s-5.3594-2.4102-5.3594-5.3594 2.4102-5.3594 5.3594-5.3594z"/><path d="m52.891 69.52c0 3.8555-5.7812 3.8555-5.7812 0 0-3.8516 5.7812-3.8516 5.7812 0"/></svg>