<svg xmlns="http://www.w3.org/2000/svg" viewBox="-5 -5 110 110"><path d="m28.48 12.5h-9.8789c-3.3633 0-6.1016 2.7383-6.1016 6.1016v22.324c0 3.3633 2.7383 6.1016 6.1016 6.1016h9.8789c3.3633 0 6.1016-2.7383 6.1016-6.1016v-22.324c0-3.3633-2.7383-6.1016-6.1016-6.1016zm-0.14453 28.281-9.5859 0.14844-0.14844-22.176 9.7305-0.14844v22.18zm12.859-15.215c-1.1055-1.3242-0.92578-3.2969 0.39844-4.4023l9.5273-7.9375c0.93359-0.77734 2.2344-0.94141 3.3242-0.42969 1.0977 0.51562 1.8008 1.6172 1.8008 2.832v29.039c0 1.7266-1.3984 3.125-3.125 3.125-1.7266 0-3.125-1.3984-3.125-3.125v-22.367l-4.4023 3.668c-1.3281 1.1016-3.2969 0.92578-4.4023-0.39844zm40.203-13.066h-9.8828c-3.3672 0-6.1016 2.7383-6.1016 6.1016v22.324c0 3.3633 2.7383 6.1016 6.1016 6.1016h9.8828c3.3633 0 6.1016-2.7383 6.1016-6.1016v-22.324c0-3.3633-2.7383-6.1016-6.1016-6.1016zm-0.14844 28.281-9.5859 0.14844-0.14844-22.176 9.7305-0.14844v22.18zm-52.844 14.754v28.84c0 1.7266-1.3984 3.125-3.125 3.125s-3.125-1.3984-3.125-3.125v-22.199l-4.4102 3.6484c-1.3281 1.1016-3.3008 0.91406-4.4023-0.41406-1.1016-1.332-0.91406-3.3008 0.41406-4.4023l9.5273-7.8828c0.93359-0.77344 2.2266-0.9375 3.3242-0.41797 1.0938 0.51562 1.793 1.6172 1.793 2.8281zm24.887-2.7031h-9.8633c-3.3672 0-6.1094 2.7422-6.1094 6.1094v22.449c0 3.3672 2.7422 6.1094 6.1094 6.1094h9.8633c3.3672 0 6.1094-2.7422 6.1094-6.1094v-22.449c0-3.3672-2.7422-6.1094-6.1094-6.1094zm-0.14062 28.418-9.5859 0.14062-0.14062-22.309 9.7227-0.14062v22.309zm28.098-25.914v29.039c0 1.7266-1.3984 3.125-3.125 3.125s-3.125-1.3984-3.125-3.125v-22.367l-4.4023 3.668c-1.3242 1.1094-3.293 0.92188-4.4023-0.39844-1.1055-1.3242-0.92578-3.2969 0.40234-4.4023l9.5273-7.9375c0.93359-0.77734 2.2383-0.9375 3.3242-0.42969 1.0977 0.51563 1.8008 1.6172 1.8008 2.832z" fill="#ffffff"/></svg>