<svg xmlns="http://www.w3.org/2000/svg" viewBox="0 0 100 100"><path d="M19,37v26h62V37H19z M54,42h4v4h-4V42z M54,48h4v4h-4V48z M48,42h4v4h-4V42z M48,48h4v4h-4V48z M42,42h4v4h-4V42z M42,48h4  v4h-4V48z M36,42h4v4h-4V42z M36,48h4v4h-4V48z M28,58h-4v-4h4V58z M28,52h-4v-4h4V52z M28,46h-4v-4h4V46z M34,58h-4v-4h4V58z   M34,52h-4v-4h4V52z M34,46h-4v-4h4V46z M64,58H36v-4h28V58z M64,52h-4v-4h4V52z M64,46h-4v-4h4V46z M70,58h-4v-4h4V58z M70,52h-4  v-4h4V52z M70,46h-4v-4h4V46z M76,58h-4v-4h4V58z M76,52h-4v-4h4V52z M76,46h-4v-4h4V46z" fill="#ffffff"/></svg>