<svg xmlns="http://www.w3.org/2000/svg" viewBox="-0.5 -0.5 16 16"><path d="M11.25 2.5a0.625 0.625 0 1 0 -1.25 0v0.625H2.5a0.625 0.625 0 0 0 0 1.25h7.5v0.625a0.625 0.625 0 1 0 1.25 0V4.375h1.25a0.625 0.625 0 1 0 0 -1.25h-1.25V2.5ZM2.5 6.875a0.625 0.625 0 1 0 0 1.25h1.25v0.625a0.625 0.625 0 1 0 1.25 0v-0.625h7.5a0.625 0.625 0 1 0 0 -1.25H5v-0.625a0.625 0.625 0 0 0 -1.25 0v0.625H2.5Zm-0.625 4.375a0.625 0.625 0 0 1 0.625 -0.625h7.5v-0.625a0.625 0.625 0 1 1 1.25 0v0.625h1.25a0.625 0.625 0 1 1 0 1.25h-1.25v0.625a0.625 0.625 0 1 1 -1.25 0v-0.625H2.5a0.625 0.625 0 0 1 -0.625 -0.625Z" fill="#ffffff" stroke-width="1"/></svg>