<svg xmlns="http://www.w3.org/2000/svg" viewBox="-0.5 -0.5 16 16"><path d="M9.74125 1.25A1.25 1.25 0 0 1 10.625 1.61625L12.758750000000001 3.75A1.25 1.25 0 0 1 13.125 4.63375V10a1.25 1.25 0 0 1 -1.25 1.25h-1.25v1.25a1.25 1.25 0 0 1 -1.25 1.25H3.75a1.25 1.25 0 0 1 -1.25 -1.25V5a1.25 1.25 0 0 1 1.25 -1.25h1.25V2.5a1.25 1.25 0 0 1 1.25 -1.25h3.49125ZM5 5H3.75v7.5h5.625v-1.25h-3.125a1.25 1.25 0 0 1 -1.25 -1.25V5Zm3.75 -2.5h-2.5v7.5h5.625V5.625h-2.1875a0.9375 0.9375 0 0 1 -0.9331250000000001 -0.8475L8.75 4.6875V2.5Zm1.25 0.25875V4.375h1.61625L10 2.75875Z" fill="#ffffff" stroke-width="1"/></svg>