<svg xmlns="http://www.w3.org/2000/svg" viewBox="0 0 100 100"><path d="M34.9,68.9c0.7,1.1,1.1,2.3,1.1,3.7V82h-4c-2.8,0-5-2.2-5-5V23c0-2.8,2.2-5,5-5h4v27.5c0,1.4-0.4,2.6-1.1,3.7  C33,52.1,32,55.5,32,59S33,65.9,34.9,68.9z M68,18h-4v27.5c0,1.4,0.4,2.6,1.1,3.7C67,52.1,68,55.5,68,59s-1,6.9-2.9,9.9  c-0.7,1.1-1.1,2.3-1.1,3.7V82h4c2.8,0,5-2.2,5-5V23C73,20.2,70.8,18,68,18z M50,38.5c2.5,0,4.5-2,4.5-4.5s-2-4.5-4.5-4.5  s-4.5,2-4.5,4.5S47.5,38.5,50,38.5z M50,54.5c-2.5,0-4.5,2-4.5,4.5s2,4.5,4.5,4.5s4.5-2,4.5-4.5S52.5,54.5,50,54.5z M66,59  c0,3.1-0.9,6.2-2.6,8.8c-0.9,1.4-1.4,3-1.4,4.8V82H38v-9.5c0-1.8-0.5-3.4-1.4-4.8C34.9,65.2,34,62.1,34,59s0.9-6.2,2.6-8.8  c0.9-1.4,1.4-3,1.4-4.8V18h24v27.5c0,1.8,0.5,3.4,1.4,4.8C65.1,52.8,66,55.9,66,59z M42,34c0,4.4,3.6,8,8,8s8-3.6,8-8  c0-4.4-3.6-8-8-8S42,29.6,42,34z M63,59c0-7.2-5.8-13-13-13s-13,5.8-13,13c0,7.2,5.8,13,13,13S63,66.2,63,59z" fill="#ffffff" /></svg>