<svg xmlns="http://www.w3.org/2000/svg" viewBox="-0.5 -0.5 16 16"><path d="M1.25 7.55c-0.00375 -0.53875 0.56875 -0.8475 1.01125 -0.609375l0.059375 0.036250000000000004 1.67375 1.1275c0.6074999999999999 0.40937500000000004 0.235625 1.339375 -0.45875 1.254375l-0.07312500000000001 -0.0125 -0.6643749999999999 -0.14625000000000002a5.001250000000001 5.001250000000001 0 0 0 9.2525 0.378125 0.625 0.625 0 0 1 1.1375 0.5175c-1.241875 2.73125 -4.31 4.245625 -7.304374999999999 3.443125A6.251875 6.251875 0 0 1 1.25 7.55Zm0.5643750000000001 -2.6425C3.05625 2.17625 6.124375 0.6625000000000001 9.11875 1.464375a6.251250000000001 6.251250000000001 0 0 1 4.63375 5.988125c0.004375 0.5393749999999999 -0.56875 0.8487500000000001 -1.010625 0.61l-0.06 -0.036250000000000004 -1.67375 -1.1275c-0.6074999999999999 -0.40937500000000004 -0.235625 -1.339375 0.45875 -1.254375l0.07312500000000001 0.0125 0.6643749999999999 0.14625000000000002A5.001250000000001 5.001250000000001 0 0 0 2.951875 5.425a0.625 0.625 0 1 1 -1.1375 -0.5175Z" fill="#ffffff" stroke-width="1"/></svg>