<svg xmlns="http://www.w3.org/2000/svg" viewBox="-0.5 -0.25 11 11" fill="#ffffff"><g><path d="m 5.2926079,0.79347667 c -1.1102684,0 -2.115513,0.122616 -2.8633896,0.32814503 -0.3739382,0.102764 -0.6830589,0.223393 -0.9198424,0.377237 -0.236781,0.153848 -0.4314958,0.364466 -0.4314958,0.644406 0,0.01749 5.292e-4,0.03472 0.00212,0.05168 v 1.974556 a 0.26458251,0.26458251 0 0 0 -0.00212,0.03411 c -1.05e-5,0.01717 5.292e-4,0.03463 0.00212,0.05168 v 2.102716 a 0.26460995,0.26460995 0 0 0 0,0.0041 0.26458349,0.26458349 0 0 0 0,0.0016 v 2.113565 a 0.26460995,0.26460995 0 0 0 0.00159,0.03101 c 0.033038,0.270817 0.231648,0.459121 0.4728395,0.605647 0.2411915,0.146529 0.5523045,0.262445 0.9239726,0.36122 0.7433416,0.197546 1.7302189,0.314708 2.8142988,0.314708 1.0840826,0 2.0694094,-0.117162 2.8127484,-0.314708 0.3716708,-0.09877 0.6822651,-0.214691 0.9234593,-0.36122 0.2411915,-0.146526 0.439801,-0.33483 0.4728395,-0.605647 a 0.26460995,0.26460995 0 0 0 0.00212,-0.03101 v -2.119249 -2.108917 c 0.00106,-0.01505 0.00159,-0.03032 0.00159,-0.04547 a 0.26458251,0.26458251 0 0 0 -0.00159,-0.03101 v -1.990577 c 7.937e-4,-0.01283 0.00159,-0.02564 0.00159,-0.03876 0,-0.27994 -0.1926484,-0.490559 -0.429432,-0.644406 C 8.839231,1.3450457 8.530113,1.2244177 8.1561748,1.1216527 7.4082982,0.91612467 6.4030536,0.79350867 5.2927825,0.79350867 Z m 0,0.52916703 c 1.0709751,0 2.0412736,0.121719 2.7228324,0.309025 0.340778,0.09365 0.6086025,0.206264 0.7715276,0.312124 0.1404646,0.09127 0.1789615,0.158613 0.187071,0.188103 v 0.02273 c -0.0081,0.02989 -0.046612,0.09839 -0.187071,0.189653 -0.1629251,0.10586 -0.4307496,0.21899 -0.7715276,0.312642 -0.6815588,0.187301 -1.6518573,0.308507 -2.7228324,0.308507 -1.0709724,0 -2.041271,-0.121206 -2.7228297,-0.308507 C 2.2289975,2.5632667 1.9596253,2.4501367 1.7966975,2.3442767 1.6562355,2.2530117 1.61722,2.1845137 1.6091132,2.1546237 v -0.02273 c 0.0081,-0.02949 0.047128,-0.09684 0.1875843,-0.188103 0.1629278,-0.10586 0.4323,-0.218472 0.7730807,-0.312124 0.6815587,-0.187304 1.6518573,-0.309023 2.7228297,-0.309023 z m -3.6834947,1.525487 c 0.2216229,0.125921 0.496607,0.229426 0.8201051,0.318328 0.7478766,0.205529 1.7531212,0.328144 2.8633896,0.328144 1.110271,0 2.1155157,-0.122615 2.8633923,-0.328144 0.3224212,-0.08861 0.5967968,-0.191426 0.8180387,-0.316778 v 1.360125 c -0.00341,0.02268 -0.047292,0.11039 -0.2185935,0.214456 -0.172839,0.105002 -0.4449524,0.212463 -0.7849631,0.302823 -0.6800242,0.180721 -1.6322252,0.297141 -2.6778744,0.297141 -1.0456465,0 -1.9978475,-0.11642 -2.6778717,-0.297141 C 2.2747228,4.6367277 2.0026121,4.5292637 1.8297704,4.4242617 1.6584659,4.3201927 1.6125131,4.2324727 1.6091132,4.2098057 Z m 0.8242379,0.658357 a 0.26458349,0.26458349 0 0 0 -0.2635488,0.263552 v 0.324527 A 0.26458349,0.26458349 0 0 0 2.4333511,4.3581157 0.26458349,0.26458349 0 0 0 2.698969,4.0945667 V 3.7700397 A 0.26458349,0.26458349 0 0 0 2.4333511,3.5064877 Z m 0.781349,0.173633 a 0.26458349,0.26458349 0 0 0 -0.2640674,0.264068 v 0.324011 a 0.26458349,0.26458349 0 0 0 0.2640674,0.263549 0.26458349,0.26458349 0 0 0 0.2635488,-0.263549 V 3.9441887 A 0.26458349,0.26458349 0 0 0 3.2147001,3.6801207 Z m -1.6055869,1.227318 c 0.2328704,0.131831 0.5250048,0.239773 0.8691959,0.331245 0.743339,0.197548 1.7302189,0.314708 2.8142988,0.314708 1.0840826,0 2.0694121,-0.11716 2.8127484,-0.314708 0.3441938,-0.09147 0.6358122,-0.199414 0.8686826,-0.331245 v 1.421101 c -0.00341,0.02267 -0.047302,0.108844 -0.2185935,0.212907 -0.172839,0.105003 -0.4449524,0.21453 -0.7849631,0.30489 -0.6800242,0.180721 -1.6322252,0.296622 -2.6778744,0.296622 -1.0456465,0 -1.9978475,-0.115901 -2.6778717,-0.296622 C 2.2747228,6.7559767 2.0026121,6.6464497 1.8297704,6.5414467 1.6584739,6.4373807 1.6125157,6.3512117 1.6091132,6.3285397 Z m 0.8242379,0.706416 a 0.26458349,0.26458349 0 0 0 -0.2635488,0.265615 v 0.322461 A 0.26458349,0.26458349 0 0 0 2.4333511,6.4675487 0.26458349,0.26458349 0 0 0 2.698969,6.2019307 V 5.8794697 A 0.26458349,0.26458349 0 0 0 2.4333511,5.6138547 Z m 0.781349,0.173633 a 0.26458349,0.26458349 0 0 0 -0.2640674,0.266134 v 0.321942 a 0.26458349,0.26458349 0 0 0 0.2640674,0.265618 0.26458349,0.26458349 0 0 0 0.2635488,-0.265618 V 6.0536217 A 0.26458349,0.26458349 0 0 0 3.2147001,5.7874877 Z m -1.6055869,1.2392 c 0.2328704,0.131834 0.5250048,0.239776 0.8691959,0.331245 0.7433416,0.197548 1.7302189,0.312642 2.8142988,0.312642 1.0840826,0 2.0694094,-0.115094 2.8127484,-0.312642 0.3441938,-0.09147 0.6358122,-0.199411 0.8686826,-0.331245 v 1.419034 c -0.00341,0.02267 -0.047292,0.110908 -0.2185935,0.214974 -0.172839,0.105003 -0.4449524,0.212466 -0.7849631,0.302824 -0.6800242,0.180723 -1.6322252,0.296624 -2.6778744,0.296624 -1.0456465,0 -1.9978475,-0.115901 -2.6778717,-0.296624 C 2.2747228,8.8731617 2.0026121,8.7656987 1.8297704,8.6606957 1.6584659,8.5566277 1.6125131,8.4683917 1.6091132,8.4457217 Z m 0.8242379,0.679029 a 0.26458349,0.26458349 0 0 0 -0.2635488,0.265615 v 0.322461 A 0.26458349,0.26458349 0 0 0 2.4333511,8.5594107 0.26458349,0.26458349 0 0 0 2.698969,8.2937927 V 7.9713317 A 0.26458349,0.26458349 0 0 0 2.4333511,7.7057167 Z m 0.781349,0.173633 a 0.26458349,0.26458349 0 0 0 -0.2640674,0.264064 v 0.324012 a 0.26458349,0.26458349 0 0 0 0.2640674,0.265618 0.26458349,0.26458349 0 0 0 0.2635488,-0.265618 V 8.1434137 A 0.26458349,0.26458349 0 0 0 3.2147001,7.8793497 Z"/></g></svg>