<svg xmlns="http://www.w3.org/2000/svg" viewBox="-0.5 -0.5 16 16"><path d="M9.05375 1.964375a0.625 0.625 0 0 1 0.4325 0.7706250000000001l-2.76875 9.8675a0.625 0.625 0 0 1 -1.2037499999999999 -0.3375l2.76875 -9.8675a0.625 0.625 0 0 1 0.77125 -0.433125ZM4.504375 4.40625a0.625 0.625 0 0 1 0 0.8837499999999999L2.295 7.5l2.209375 2.209375a0.625 0.625 0 1 1 -0.8837499999999999 0.884375L0.96875 7.9418750000000005a0.625 0.625 0 0 1 0 -0.8837499999999999L3.620625 4.40625a0.625 0.625 0 0 1 0.8837499999999999 0Zm5.99125 0.8837499999999999a0.625 0.625 0 1 1 0.8837499999999999 -0.8837499999999999l2.6518750000000004 2.6518750000000004a0.625 0.625 0 0 1 0 0.8837499999999999l-2.6518750000000004 2.6518750000000004a0.625 0.625 0 0 1 -0.8837499999999999 -0.884375L12.705 7.5l-2.209375 -2.21Z" fill="#ffffff" stroke-width="1" /></svg>
