<svg xmlns="http://www.w3.org/2000/svg" viewBox="-5.0 -5.0 110 110"><path d="m7.5 45h85c1.3789 0 2.5 1.3789 2.5 2.5v5c0 1.3789-1.1211 2.5-2.5 2.5h-85c-1.3789 0-2.5-1.3789-2.5-2.5v-5c0-1.3789 1.1211-2.5 2.5-2.5z" fill="#ffffff"/><path d="m7.5 25h85c1.3789 0 2.5 1.3789 2.5 2.5v5c0 1.3789-1.1211 2.5-2.5 2.5h-85c-1.3789 0-2.5-1.3789-2.5-2.5v-5c0-1.3789 1.1211-2.5 2.5-2.5z" fill="#ffffff"/><path d="m7.5 65h85c1.3789 0 2.5 1.3789 2.5 2.5v5c0 1.3789-1.1211 2.5-2.5 2.5h-85c-1.3789 0-2.5-1.3789-2.5-2.5v-5c0-1.3789 1.1211-2.5 2.5-2.5z" fill="#ffffff"/></svg>