<svg xmlns="http://www.w3.org/2000/svg" viewBox="-5 -5 110 110" fill="#ffffff">
 <path d="m50 90.625c-22.422 0-40.625-18.203-40.625-40.625s18.203-40.625 40.625-40.625 40.625 18.203 40.625 40.625-18.203 40.625-40.625 40.625zm-12.391-72.695c-6.3711 2.4648-11.828 6.7773-15.711 12.277h10.723c1.2422-4.7422 2.9102-8.8594 4.8672-12.09 0.039063-0.0625 0.078125-0.12891 0.12109-0.1875zm-19.207 18.523c-1.6562 3.8555-2.6289 8.0742-2.7617 12.504h14.574c0.050781-4.3828 0.42969-8.5859 1.0781-12.5h-12.742c-0.050781 0-0.10156 0-0.14844-0.003906zm-2.3828 18.754c0.69922 4.5859 2.3047 8.875 4.6289 12.68 0.29687-0.11719 0.61719-0.17969 0.94922-0.17969h10.512c-0.875-3.8477-1.4805-8.0586-1.7461-12.5h-14.348zm9.3398 18.75c3.4219 3.5195 7.5938 6.3086 12.25 8.1133-0.042969-0.0625-0.082031-0.125-0.12109-0.1875-1.3594-2.2422-2.5781-4.9141-3.6133-7.9219h-8.5156zm37.031 8.1133c4.6562-1.8047 8.8281-4.5938 12.25-8.1133h-8.5156c-1.0352 3.0117-2.2539 5.6797-3.6133 7.9219-0.039063 0.0625-0.078125 0.12891-0.12109 0.1875zm16.965-14.184c2.3242-3.8047 3.9297-8.0938 4.6289-12.68h-14.348c-0.26562 4.4414-0.87109 8.6523-1.7461 12.5h10.512c0.33203 0 0.65234 0.0625 0.94922 0.17969zm5.0039-18.93c-0.13281-4.4297-1.1016-8.6484-2.7617-12.504-0.050781 0.003906-0.097656 0.003906-0.14844 0.003906h-12.742c0.64844 3.9141 1.0273 8.1172 1.0781 12.5zm-6.2578-18.75c-3.8828-5.5-9.3398-9.8125-15.711-12.277 0.042969 0.0625 0.082031 0.125 0.12109 0.1875 1.957 3.2305 3.625 7.3477 4.8672 12.09zm-31.227-13.547c-1.4648 0.99609-2.8008 2.6484-4.043 4.6953-1.4727 2.4336-2.7422 5.4297-3.75 8.8477h7.793v-13.547zm-9.2578 19.797c-0.69531 3.8711-1.0977 8.0859-1.1523 12.5h10.41v-12.5zm-0.99609 18.75c0.28516 4.4922 0.9375 8.7188 1.8906 12.5h8.3633v-12.5zm3.8984 18.75c0.69531 1.7266 1.4688 3.2969 2.3086 4.6836 1.2422 2.0508 2.5781 3.7031 4.043 4.6953v-9.3789zm12.602 9.3789c1.4648-0.99609 2.8008-2.6484 4.043-4.6953 0.83984-1.3867 1.6133-2.957 2.3086-4.6836h-6.3516zm8.3633-15.629c0.95312-3.7812 1.6055-8.0078 1.8906-12.5h-10.254v12.5zm2.0469-18.75c-0.054688-4.4141-0.45703-8.6289-1.1523-12.5h-9.2578v12.5zm-2.6172-18.75c-1.0078-3.418-2.2773-6.418-3.75-8.8477-1.2422-2.0508-2.5781-3.7031-4.043-4.6953v13.547h7.793z" fill-rule="evenodd"/>
</svg>