<svg xmlns="http://www.w3.org/2000/svg" viewBox="0 0 32 32"><path d="M16,2a1,1,0,0,0-1,1V29a1,1,0,0,0,2,0V3A1,1,0,0,0,16,2Z" fill="#ffffff"/><path d="M20,9a1,1,0,0,0-1,1V23a1,1,0,0,0,2,0V10A1,1,0,0,0,20,9Z" fill="#ffffff"/><path d="M24,6a1,1,0,0,0-1,1V26a1,1,0,0,0,2,0V7A1,1,0,0,0,24,6Z" fill="#ffffff"/><path d="M28,12a1,1,0,0,0-1,1v7a1,1,0,0,0,2,0V13A1,1,0,0,0,28,12Z" fill="#ffffff"/><path d="M12,9a1,1,0,0,0-1,1V23a1,1,0,0,0,2,0V10A1,1,0,0,0,12,9Z" fill="#ffffff"/><path d="M8,6A1,1,0,0,0,7,7V26a1,1,0,0,0,2,0V7A1,1,0,0,0,8,6Z" fill="#ffffff"/><path d="M4,12a1,1,0,0,0-1,1v7a1,1,0,0,0,2,0V13A1,1,0,0,0,4,12Z" fill="#ffffff"/></svg>