<svg xmlns="http://www.w3.org/2000/svg" viewBox="-5.0 -5.0 110.0 110.0"><path d="m85.715 7.1445h-4.8828v19.465c0 0.96484-0.35547 1.8555-1.0352 2.5352l-9.2148 9.2148c0.75 2.5352 0.10547 5.3945-1.8555 7.3555-1.4648 1.4648-3.3945 2.2148-5.2852 2.2148-1.9297 0-3.8203-0.75-5.2852-2.2148-2.8945-2.8945-2.8945-7.6445 0-10.535 2-2 4.8203-2.6445 7.3555-1.8555l8.1797-8.1797v-18h-59.406c-3.9453 0-7.1406 3.1953-7.1406 7.1406v8.7539c0.003907 0 0.007813-0.003906 0.011719-0.003906h16.785c1.2852-2.3203 3.75-3.8945 6.6055-3.8945 4.1055 0 7.4648 3.3555 7.4648 7.4648 0 4.1445-3.3555 7.5-7.4648 7.5-2.8555 0-5.3203-1.5703-6.6055-3.9297l-16.789 0.003907c-0.003906 0-0.007813-0.003907-0.007813-0.003907v55.539c0 3.9453 3.1992 7.1445 7.1445 7.1445h22.688v-18l-8.1445-8.1445c-0.64453 0.17969-1.3555 0.28516-2.1055 0.28516-4.1445 0-7.4648-3.3203-7.4648-7.4648 0-4.1055 3.3203-7.4648 7.4648-7.4648 4.1055 0 7.4648 3.3555 7.4648 7.4648 0 0.75-0.10547 1.4648-0.28516 2.1445l9.1797 9.1797c0.67969 0.67969 1.0352 1.5703 1.0352 2.5352l-0.003906 19.461h25.68v-16.82c-2.3203-1.2852-3.8945-3.75-3.8945-6.5703 0-4.1055 3.3555-7.4648 7.4648-7.4648 4.1445 0 7.4648 3.3555 7.4648 7.4648 0 2.8203-1.5703 5.2852-3.8945 6.5703v16.82h8.7773c3.9453 0 7.1445-3.1992 7.1445-7.1445l-0.003906-71.426c0-3.9453-3.1953-7.1406-7.1406-7.1406z" fill="#ffffff"/></svg>