<svg xmlns="http://www.w3.org/2000/svg" viewBox="-0.5 -0.5 16 16"><path d="M11.875 1.875a1.25 1.25 0 0 1 1.25 1.25v8.75a1.25 1.25 0 0 1 -1.25 1.25H3.125a1.25 1.25 0 0 1 -1.25 -1.25V3.125a1.25 1.25 0 0 1 1.25 -1.25h8.75Zm0 1.25H3.125v8.75h8.75V3.125Zm-1.875 5.625a0.625 0.625 0 0 1 0.07312500000000001 1.245625L10 10h-1.25a0.625 0.625 0 0 1 -0.07312500000000001 -1.245625L8.75 8.75h1.25ZM5.65625 5.290625l1.7681250000000002 1.7674999999999998a0.625 0.625 0 0 1 0 0.8837499999999999L5.65625 9.709999999999999a0.625 0.625 0 0 1 -0.8837499999999999 -0.884375l1.325625 -1.3250000000000002 -1.3250000000000002 -1.32625A0.625 0.625 0 1 1 5.65625 5.290625Z" fill="#ffffff" stroke-width="1" /></svg>