<svg xmlns="http://www.w3.org/2000/svg" viewBox="-0.5 -0.5 16 16"><path d="m8.084375 1.79875 4.488125 2.3725c0.66625 0.35187499999999994 0.66625 1.30625 0 1.6575000000000002L11.77625 6.25l0.79625 0.42125c0.66625 0.35187499999999994 0.66625 1.30625 0 1.6575000000000002L11.77625 8.75l0.79625 0.42125c0.66625 0.35187499999999994 0.66625 1.30625 0 1.6575000000000002l-4.488125 2.3725a1.25 1.25 0 0 1 -1.1687500000000002 0l-4.488125 -2.3725c-0.66625 -0.35187499999999994 -0.66625 -1.305625 0 -1.6575000000000002L3.2243749999999998 8.75l-0.796875 -0.42125c-0.66625 -0.35187499999999994 -0.66625 -1.305625 0 -1.6575000000000002L3.2243749999999998 6.25l-0.796875 -0.42125c-0.66625 -0.35187499999999994 -0.66625 -1.305625 0 -1.6575000000000002l4.488125 -2.3725a1.25 1.25 0 0 1 1.1687500000000002 0Zm2.354375 7.658125 -2.354375 1.244375a1.25 1.25 0 0 1 -1.1687500000000002 0l-2.354375 -1.24375L3.5343750000000003 10 7.5 12.09625 11.46625 10l-1.0274999999999999 -0.543125Zm0 -2.5 -2.354375 1.245a1.25 1.25 0 0 1 -1.066875 0.0475l-0.10187500000000001 -0.0475 -2.354375 -1.245 -1.026875 0.54375L7.5 9.595625 11.46625 7.5l-1.0274999999999999 -0.543125ZM7.5 2.90375 3.5343750000000003 5 7.5 7.0962499999999995 11.46625 5 7.5 2.90375Z" fill="#ffffff" fill-rule="nonzero" stroke-width="1"/></svg>
