<svg xmlns="http://www.w3.org/2000/svg" viewBox="-5 -5 110 110"><path d="m53.125 81.062v9.5625h12.5v6.25h-31.25v-6.25h12.5v-9.5625c-6.8672-0.77734-13.211-4.0547-17.82-9.207-4.6094-5.1523-7.1641-11.816-7.1797-18.73h6.25c0 7.8164 4.168 15.035 10.938 18.945 6.7695 3.9062 15.105 3.9062 21.875 0 6.7695-3.9102 10.938-11.129 10.938-18.945h6.25c-0.015625 6.9141-2.5703 13.578-7.1797 18.73-4.6094 5.1523-10.953 8.4297-17.82 9.207zm-3.125-12.312c4.1445 0 8.1172-1.6484 11.047-4.5781s4.5781-6.9023 4.5781-11.047v-34.375c0-5.582-2.9766-10.742-7.8125-13.531-4.8359-2.793-10.789-2.793-15.625 0-4.8359 2.7891-7.8125 7.9492-7.8125 13.531v34.375c0 4.1445 1.6484 8.1172 4.5781 11.047s6.9023 4.5781 11.047 4.5781z" fill="#ffffff"/></svg>