<svg xmlns="http://www.w3.org/2000/svg" version="1.1" viewBox="-5 -5 110 110"><path d="m50 68.75c4.1406-0.003906 8.1133-1.6523 11.043-4.582 2.9297-2.9297 4.5781-6.9023 4.582-11.043v-34.375c0-5.582-2.9766-10.742-7.8125-13.531-4.8359-2.793-10.789-2.793-15.625 0-4.8359 2.7891-7.8125 7.9492-7.8125 13.531v34.375c0.003906 4.1406 1.6523 8.1133 4.582 11.043 2.9297 2.9297 6.9023 4.5781 11.043 4.582zm-9.375-50c0-5.1758 4.1992-9.375 9.375-9.375s9.375 4.1992 9.375 9.375v34.375c0 5.1758-4.1992 9.375-9.375 9.375s-9.375-4.1992-9.375-9.375zm12.5 62.316v9.5586h12.5v6.25h-31.25v-6.25h12.5v-9.5586c-6.8711-0.77734-13.215-4.0508-17.828-9.207-4.6094-5.1523-7.1641-11.82-7.1719-18.734h6.25c0 7.8164 4.168 15.035 10.938 18.945 6.7695 3.9062 15.105 3.9062 21.875 0 6.7695-3.9102 10.938-11.129 10.938-18.945h6.25c-0.007812 6.9141-2.5625 13.582-7.1719 18.734-4.6133 5.1562-10.957 8.4297-17.828 9.207z" fill="#ffffff"/></svg>