<svg xmlns="http://www.w3.org/2000/svg" viewBox="-0.5 -0.5 16 16"><path fill="#ffffff" d="M7.5 2.5c1.7418749999999998 0 3.2893749999999997 0.7856249999999999 4.391249999999999 1.7581250000000002 0.553125 0.48812500000000003 1.00875 1.03625 1.33 1.5818750000000001 0.315625 0.535625 0.5287499999999999 1.11625 0.5287499999999999 1.6600000000000001 0 0.54375 -0.21250000000000002 1.124375 -0.5287499999999999 1.6600000000000001 -0.32125000000000004 0.545625 -0.7768750000000001 1.09375 -1.33 1.5818750000000001C10.789375000000001 11.714374999999999 9.241249999999999 12.5 7.5 12.5c-1.7418749999999998 0 -3.2893749999999997 -0.7856249999999999 -4.391249999999999 -1.7581250000000002 -0.553125 -0.48812500000000003 -1.00875 -1.03625 -1.33 -1.5818750000000001C1.4625 8.624375 1.25 8.04375 1.25 7.5c0 -0.54375 0.21250000000000002 -1.124375 0.5287499999999999 -1.6600000000000001 0.32125000000000004 -0.545625 0.7768750000000001 -1.09375 1.33 -1.5818750000000001C4.210625 3.2856249999999996 5.75875 2.5 7.5 2.5Zm0 1.25c-1.3650000000000002 0 -2.63 0.620625 -3.5637499999999998 1.4449999999999998 -0.46499999999999997 0.41000000000000003 -0.8325 0.858125 -1.080625 1.2793750000000002C2.601875 6.905625 2.5 7.262499999999999 2.5 7.5c0 0.2375 0.10187500000000001 0.594375 0.35562499999999997 1.025625 0.248125 0.42125 0.615625 0.8687499999999999 1.080625 1.2793750000000002C4.87 10.629375000000001 6.135000000000001 11.25 7.5 11.25s2.63 -0.620625 3.5637499999999998 -1.4449999999999998c0.46499999999999997 -0.410625 0.8325 -0.858125 1.080625 -1.2793750000000002 0.25375000000000003 -0.43124999999999997 0.35562499999999997 -0.788125 0.35562499999999997 -1.025625 0 -0.2375 -0.10187500000000001 -0.594375 -0.35562499999999997 -1.025625 -0.248125 -0.42125 -0.615625 -0.8687499999999999 -1.080625 -1.2793750000000002C10.129999999999999 4.370625 8.865 3.75 7.5 3.75Zm0 1.875c0.05499999999999999 0 0.109375 0.0025 0.16312500000000002 0.006874999999999999a1.25 1.25 0 0 0 1.705 1.705A1.875 1.875 0 1 1 7.5 5.625Z" stroke-width="1"/></svg>