<svg xmlns="http://www.w3.org/2000/svg" viewBox="-0.5 -0.5 16 16"><path fill="#ffffff" fill-rule="evenodd" d="M7.4990625 2.8289125c2.7056875000000002 -0.0413 5.417562500000001 1.826625 7.086375 3.6614000000000004l0.0014999999999999998 0.0016875000000000002c0.2488125 0.2763125 0.38656250000000003 0.6349375 0.38656250000000003 1.00675s-0.13775 0.7304375000000001 -0.38656250000000003 1.00675l-0.0013750000000000001 0.0014999999999999998c-1.63075 1.7946875000000002 -4.336 3.706 -7.0865 3.6640625 -2.7504875 0.0419375 -5.45576875 -1.8693125 -7.084810624999999 -3.66425l-0.0011837500000000001 -0.0013124999999999999c-0.24884625 -0.2763125 -0.386556 -0.6349375 -0.386556 -1.00675s0.13770975 -0.7304375000000001 0.38655849999999997 -1.00675l0.001335625 -0.0014375 0.000003125 0C2.08150625 4.655525 4.79340625 2.7876125000000003 7.4990625 2.8289125Zm0.0110625 7.7865874999999996c-1.72070625 0 -3.1156125 -1.3948749999999999 -3.1156125 -3.115625 0 -1.72068125 1.39490625 -3.1155937500000004 3.1156125 -3.1155937500000004v0.00265625h0.6325000000000001c0.258875 0 0.46875 0.2098625 0.46875 0.46875 0 0.25888125 -0.20987499999999998 0.46875 -0.46875 0.46875h-0.6325000000000001v1.7073749999999999h0.6325000000000001c0.258875 0 0.46875 0.20987499999999998 0.46875 0.46875s-0.20987499999999998 0.46875 -0.46875 0.46875h-0.6325000000000001v1.7046875h0.6325000000000001c0.258875 0 0.46875 0.20987499999999998 0.46875 0.46875s-0.20987499999999998 0.46875 -0.46875 0.46875h-0.6325000000000001v0.004Zm0.8749374999999999 -4.53204375c0 -0.2588875 0.20987499999999998 -0.46875 0.46875 -0.46875h0.3134375c0.258875 0 0.46875 0.2098625 0.46875 0.46875 0 0.25885625 -0.20987499999999998 0.46873125000000004 -0.46875 0.46873125000000004h-0.3134375c-0.258875 0 -0.46875 -0.20987499999999998 -0.46875 -0.46873125000000004Zm1.4933750000000001 0.94835625c-0.258875 0 -0.46875 0.20987499999999998 -0.46875 0.46875s0.20987499999999998 0.46875 0.46875 0.46875h0.46643749999999995c0.258875 0 0.46875 -0.20987499999999998 0.46875 -0.46875s-0.20987499999999998 -0.46875 -0.46875 -0.46875h-0.46643749999999995Zm-1.4933750000000001 1.8858125000000001c0 0.2589375 0.20987499999999998 0.46875 0.46875 0.46875h0.3134375c0.258875 0 0.46875 -0.2098125 0.46875 -0.46875 0 -0.258875 -0.20987499999999998 -0.46875 -0.46875 -0.46875h-0.3134375c-0.258875 0 -0.46875 0.20987499999999998 -0.46875 0.46875Z" clip-rule="evenodd" stroke-width="1"/></svg>
