<svg xmlns="http://www.w3.org/2000/svg" viewBox="-5 -5 110 110" fill="#ffffff"><path d="m91.668 62.082v-24.168l-11.125-1.207c-1-2.293-2.25-4.5-3.75-6.5l4.5-10.25-20.918-12.082-6.625 9c-2.5-0.29297-5-0.29297-7.5 0l-6.625-9-20.918 12.082 4.5 10.25c-1.5 2-2.75 4.207-3.75 6.5l-11.125 1.207v24.168l11.125 1.207c1 2.293 2.25 4.5 3.75 6.5l-4.5 10.25 20.918 12.082 6.625-9c2.5 0.29297 5 0.29297 7.5 0l6.625 9 20.918-12.082-4.5-10.25c1.5-2 2.75-4.207 3.75-6.5zm-29.168-12.082c0 6.875-5.625 12.5-12.5 12.5s-12.5-5.625-12.5-12.5 5.625-12.5 12.5-12.5 12.5 5.625 12.5 12.5z"/></svg>