<svg xmlns="http://www.w3.org/2000/svg" viewBox="-5 -5 110 110" fill="#DBCD68"><path d="m56.699 27.766c1.375 0 2.6445 0.45312 3.668 1.2188 1.375-0.51562 2.6367-1.3203 3.6992-2.3828 0.88281-0.88281 1.5859-1.9023 2.0938-3.0078-3.7539-1.7266-8.1133-2.2109-12.418-1.0781l-0.16797 0.046875c-4.8867 1.3359-8.7852 4.5117-11.129 8.5781-2.3477 4.0703-3.1523 9.0352-1.8633 13.941l0.042969 0.17188c1.0039 3.6758 3.0508 6.793 5.7266 9.1055 2.0938 1.8047 4.5742 3.1328 7.2539 3.8594l0.17969 0.046875c0.82812 0.21484 1.6719 0.375 2.5273 0.47656 0.61719 0.070312 1.1641 0.51172 1.332 1.1484l2.6562 9.9141 3.4023 3.1211c0.42969 0.39844 0.61719 1.0195 0.43359 1.6133l-1.1133 3.5508 4.6289 2.2148 0.29688 0.16016c0.71094 0.48438 0.89453 1.457 0.41016 2.168l-3.3164 4.8359 1.0469 3.9102 7.6641 6.125 3.5742-9.1484-8.4336-31.484c-0.16016-0.60156 0.050781-1.2656 0.57812-1.6562 2.9922-2.2227 5.2266-5.3047 6.4336-8.7773 1.1719-3.3711 1.3789-7.125 0.38672-10.836-0.67578-2.5156-1.8359-4.7734-3.3555-6.6914-0.79297 1.3281-1.7539 2.5664-2.8711 3.6797-2.3555 2.3516-5.2461 4.0156-8.3906 4.8711-1.1133 1.5391-2.918 2.5391-4.9609 2.5391-3.3789 0-6.1172-2.7383-6.1172-6.1172 0-3.375 2.7383-6.1172 6.1172-6.1172zm0 8.207c-1.1523 0-2.0859-0.93359-2.0859-2.0859 0-1.1523 0.93359-2.0898 2.0859-2.0898 3.4727 0 6.6133-1.4062 8.8867-3.6719 2.2695-2.2734 3.6719-5.418 3.6719-8.8867s-1.4062-6.6094-3.6797-8.8828c-2.2695-2.2695-5.4141-3.6758-8.8828-3.6758s-6.6094 1.4062-8.8828 3.6797c-2.2695 2.2695-3.6758 5.4102-3.6758 8.8789 0 0.33203 0.011719 0.65625 0.035156 0.97266-1.3789 0.64844-2.6797 1.4336-3.8789 2.3438-0.082031-0.41016-0.14844-0.82422-0.20312-1.2383-0.085938-0.6875-0.13281-1.3828-0.13281-2.0781 0-4.6172 1.875-8.8047 4.9023-11.828 3.0273-3.0273 7.2148-4.9023 11.832-4.9023 4.6172 0 8.8047 1.875 11.832 4.9023 3.0273 3.0273 4.9023 7.2148 4.9023 11.832 0 4.6172-1.875 8.8047-4.9023 11.832-3.0391 3.0273-7.2188 4.9023-11.832 4.9023zm-10.812-13.168c-3.4727 1.5273-6.5117 4.1367-8.5508 7.6719-1.918 3.3242-2.6875 7-2.4258 10.566 0.26562 3.6406 1.6094 7.1641 3.8828 10.07 0.4375 0.48828 0.53125 1.2227 0.18359 1.8203l-5.1328 8.8906 0.19531 4.6172c0.019532 0.58203-0.28516 1.1562-0.83594 1.4414l-3.293 1.7188 1.7422 4.9336 0.058594 0.23828c0.15625 0.84766-0.40625 1.6602-1.2539 1.8164l-5.7617 1.0742-2.0156 3.4883 1.0859 9.7656 8.9961-3.9375 15.809-27.387c-1.5312-0.78516-2.9648-1.7539-4.2695-2.8789-3.1602-2.7305-5.5703-6.4102-6.7344-10.762-1.5312-5.7617-0.58984-11.586 2.1641-16.363 1.5273-2.6484 3.6133-4.9727 6.1484-6.7852z" fill-rule="evenodd"/></svg>