<svg xmlns="http://www.w3.org/2000/svg" viewBox="-25.6 -25.6 563.2 563.2" fill="#ABABAB"><path d="M185.9,109.5l47.5,47.5v0c1.6,1.6,2.2,4.1,1.4,6.4c-2.7,7-1.8,15,2.4,21.1c2.5,3.7,6.1,6.6,10.2,8.3c2.4,0.8,4.1,3,4.1,5.7  v136.3h0c0,2.4-1.4,4.6-3.8,5.6c-15.3,6-19.4,25.7-7.8,37.4c14.3,14.3,38.9,4.1,38.9-16.1c0-4.8-1.5-9.2-3.9-12.8  c-2.5-3.7-6.1-6.6-10.2-8.3c-2.4-0.8-4.1-3-4.1-5.7V198.5c0-5.3,6.5-8,10.2-4.3l46.5,46.5l0,0c1.7,1.7,2.3,4.3,1.2,6.6  c-6.5,14.9,4.3,31.9,20.9,31.9c20.2,0,30.4-24.6,16.1-38.9c-5.3-5.3-13.2-7.8-20.8-6.2c-1.4,0.3-2.8,0.7-4.1,1.3  c-2.3,1.2-5.1,0.8-7-1.1l-45.9-45.9l0,0c-1.7-1.8-2.3-4.5-1.1-6.9c8.3-17.1-6.9-36.5-25.7-32.2c-1.6,0.4-3.1,0.9-4.5,1.6  c-2.3,1.3-5.2,1-7.2-1l-46.9-46.9L185.9,109.5z M200.8,94.7l44.1,44.1c27.2-9.2,53.3,16.9,44.1,44.1l40.5,40.4  c22.3-6.7,44.8,10,44.8,33.3c0,19.2-15.6,34.8-34.8,34.8c-23.4,0-40-22.5-33.3-44.8L272.5,213v117.9c20.4,11,24.7,38.7,8.1,55.2  c-13.6,13.6-35.6,13.6-49.2,0c-16.5-16.5-12.3-44.2,8.1-55.2V202.3c-14.1-7.6-21.2-23.8-17.1-39.4L177.5,118l-138,138L256,472.5  L472.5,256L256,39.5L200.8,94.7z"/></svg>