<svg xmlns="http://www.w3.org/2000/svg" viewBox="0 0 64 64" fill="#ffffff"><path d="M14,20.5a7,7,0,0,1-.29,2h4.11a26.92,26.92,0,0,0-11.28,14h4.3A22.85,22.85,0,0,1,25,23.58V18.5H13.71A7,7,0,0,1,14,20.5Z"/><path d="M57.46,36.5a26.92,26.92,0,0,0-11.28-14h4.11a7,7,0,0,1,0-4H39v5.08A22.85,22.85,0,0,1,53.16,36.5Z"/><rect x="52" y="38.5" width="10" height="10"/><rect x="27" y="15.5" width="10" height="10"/><rect x="2" y="38.5" width="10" height="10"/><circle cx="57" cy="20.5" r="5"/><circle cx="7" cy="20.5" r="5"/></svg>