<svg xmlns="http://www.w3.org/2000/svg" viewBox="-5 -5 110 110" fill="#ffffff"><path d="m89.098 69.973c-0.26562-1.4805-0.39062-5.043-0.39062-10.684v-8.0781c0-2.6875-0.10156-4.5508-0.29688-5.582-0.36719-1.6641-0.98828-3.0312-1.8828-4.125-0.90625-1.0898-2.3086-1.9883-4.2148-2.7109-1.9062-0.71094-4.3789-1.0781-7.4336-1.0781-3.0781 0-5.7773 0.42578-8.1094 1.2656-2.332 0.83984-4.125 2.0469-5.3555 3.6094-1.2305 1.5508-2.1133 3.6055-2.6523 6.1367l5.918 0.81641c0.65625-2.5391 1.6562-4.3086 3.0117-5.3086 1.3672-1 3.4688-1.4922 6.3203-1.4922 3.043 0 5.3555 0.67969 6.8945 2.0586 1.1484 1 1.7227 2.7461 1.7227 5.2148 0 0.21875-0.011718 0.74609-0.035156 1.5742-2.3086 0.81641-5.918 1.5039-10.812 2.0898-2.4023 0.28906-4.1953 0.59766-5.375 0.90625-1.6211 0.44922-3.0664 1.1133-4.3672 1.9883-1.2852 0.875-2.332 2.0352-3.125 3.4805-0.80469 1.4492-1.1953 3.043-1.1953 4.8008 0 2.9766 1.0586 5.4336 3.1602 7.3516 2.1133 1.918 5.125 2.8711 9.0547 2.8711 2.3789 0 4.6055-0.39062 6.6875-1.1719 2.0664-0.79297 4.2266-2.1367 6.4805-4.043 0.17188 1.6875 0.58594 3.1602 1.207 4.4102h6.332c-0.75781-1.3672-1.2734-2.8047-1.5273-4.2969zm-6.5156-11.418c0 2.6641-0.32031 4.6875-0.97656 6.0547-0.85156 1.7695-2.1953 3.1719-4.0078 4.1953-1.8164 1.0234-3.8945 1.5273-6.2266 1.5273-2.3555 0-4.1484-0.53906-5.3672-1.6094-1.2188-1.0781-1.8398-2.4258-1.8398-4.043 0-1.0586 0.28906-2.0117 0.85156-2.8711 0.55078-0.87109 1.3555-1.5273 2.3906-1.9766 1.0234-0.44922 2.793-0.85156 5.2852-1.207 4.3906-0.63281 7.6875-1.3906 9.8906-2.2969v2.2305zm-54.492-33.629-18.957 49.344h6.9375l5.4102-14.945h20.633l5.7578 14.945h7.4453l-20.199-49.344h-7.0312zm-4.7227 29.078 5.4219-14.465c1.1484-3.125 2.0352-6.2617 2.6641-9.4336 0.75781 2.6758 1.9297 6.0898 3.4922 10.238l5.1602 13.66z"/></svg>