<svg xmlns="http://www.w3.org/2000/svg" viewBox="-0.5 -0.5 16 16"><path fill="#ffffff" d="M5.949999999999999 1.875a1.25 1.25 0 0 1 0.975625 0.46875l0.875 1.09375H12.5a1.25 1.25 0 0 1 1.25 1.25V11.875a1.25 1.25 0 0 1 -1.25 1.25H2.5a1.25 1.25 0 0 1 -1.25 -1.25V3.125a1.25 1.25 0 0 1 1.25 -1.25h3.4499999999999997Zm0 1.25H2.5v8.75h10V4.6875h-4.699999999999999a1.25 1.25 0 0 1 -0.975625 -0.46875L5.949375 3.125ZM7.5 6.25a0.625 0.625 0 0 1 0.625 0.625v1.693125l0.25875 -0.25937499999999997a0.625 0.625 0 1 1 0.8837499999999999 0.884375l-1.3250000000000002 1.3250000000000002a0.625 0.625 0 0 1 -0.884375 0l-1.325625 -1.3250000000000002a0.625 0.625 0 1 1 0.8837499999999999 -0.884375l0.25875 0.25937499999999997V6.875a0.625 0.625 0 0 1 0.625 -0.625Z" stroke-width="1"/></svg>