<svg xmlns="http://www.w3.org/2000/svg" viewBox="-0.5 -0.5 16 16"><path fill="#ffffff" d="M7.1875 2.5a2.8137499999999998 2.8137499999999998 0 0 1 2.7150000000000003 2.0749999999999997c0.065 0.239375 0.263125 0.41875 0.5068750000000001 0.458125A2.5006250000000003 2.5006250000000003 0 0 1 11.25 9.66625a0.625 0.625 0 1 0 0.62625 1.08125 3.7512499999999998 3.7512499999999998 0 0 0 -0.884375 -6.865625A4.06375 4.06375 0 0 0 3.125 5.260625a3.125 3.125 0 0 0 0.0775 5.7625 0.625 0.625 0 0 0 0.46875 -1.15875 1.8756249999999999 1.8756249999999999 0 0 1 0.24625000000000002 -3.5575A0.63125 0.63125 0 0 0 4.391875 5.625C4.2125 3.9875 5.531875 2.5 7.1875 2.5Zm0.3125 4.375a0.625 0.625 0 0 1 0.625 0.625v4.115l0.808125 -0.8075a0.625 0.625 0 0 1 0.8837499999999999 0.885l-1.765 1.7618749999999999c-0.15812500000000002 0.1575 -0.3125 0.29562499999999997 -0.551875 0.29562499999999997 -0.24 0 -0.39375 -0.1375 -0.551875 -0.29562499999999997l-1.765 -1.7625a0.625 0.625 0 0 1 0.8837499999999999 -0.884375L6.875 11.615V7.5a0.625 0.625 0 0 1 0.625 -0.625Z" stroke-width="1"/></svg>