<svg xmlns="http://www.w3.org/2000/svg" viewBox="-0.5 -0.5 16 16"><path d="M6.875 7.5a0.625 0.625 0 0 1 0.620625 0.551875L7.5 8.125v3.125a0.625 0.625 0 0 1 -1.245625 0.07312500000000001L6.25 11.25v-1.61625l-3.308125 3.308125a0.625 0.625 0 0 1 -0.935625 -0.8250000000000001l0.051875000000000004 -0.05875L5.36625 8.75H3.75a0.625 0.625 0 0 1 -0.07312500000000001 -1.245625L3.75 7.5h3.125Zm5.1831249999999995 -5.4418750000000005a0.625 0.625 0 0 1 0.935625 0.8250000000000001l-0.051875000000000004 0.05875L9.63375 6.25H11.25a0.625 0.625 0 0 1 0.07312500000000001 1.245625L11.25 7.5h-3.125a0.625 0.625 0 0 1 -0.620625 -0.551875L7.5 6.875V3.75a0.625 0.625 0 0 1 1.245625 -0.07312500000000001L8.75 3.75v1.61625l3.308125 -3.308125Z" fill="#ffffff" stroke-width="1"/></svg>