<svg xmlns="http://www.w3.org/2000/svg" viewBox="-0.5 -0.5 16 16"><path d="M6.1206249999999995 7.9956249999999995a0.625 0.625 0 0 1 0.935625 0.8250000000000001l-0.051875000000000004 0.05875L4.00875 11.875H5.625a0.625 0.625 0 0 1 0.07312500000000001 1.245625L5.625 13.125H2.5a0.625 0.625 0 0 1 -0.620625 -0.551875L1.875 12.5v-3.125a0.625 0.625 0 0 1 1.245625 -0.07312500000000001L3.125 9.375v1.61625l2.995625 -2.995625ZM12.5 1.875a0.625 0.625 0 0 1 0.620625 0.551875L13.125 2.5v3.125a0.625 0.625 0 0 1 -1.245625 0.07312500000000001L11.875 5.625V4.00875l-2.995625 2.995625a0.625 0.625 0 0 1 -0.935625 -0.8250000000000001l0.051875000000000004 -0.05875L10.991249999999999 3.125H9.375a0.625 0.625 0 0 1 -0.07312500000000001 -1.245625L9.375 1.875h3.125Z" fill="#ffffff" stroke-width="1"/></svg>