<svg xmlns="http://www.w3.org/2000/svg" viewBox="-0.5 -0.5 16 16"><path fill="#ffffff" d="M6.5625 1.25a5.3125 5.3125 0 0 1 4.295625 8.43875l-0.12312500000000001 0.1625 2.2825 2.2825a0.625 0.625 0 0 1 -0.8250000000000001 0.93625l-0.05875 -0.052500000000000005 -2.2825 -2.2825A5.3125 5.3125 0 1 1 6.5625 1.25Zm0 1.25a4.0625 4.0625 0 1 0 0 8.125 4.0625 4.0625 0 0 0 0 -8.125Zm0 1.25a0.625 0.625 0 0 1 0.620625 0.551875L7.1875 4.375v1.5625H8.75a0.625 0.625 0 0 1 0.07312500000000001 1.245625L8.75 7.1875h-1.5625V8.75a0.625 0.625 0 0 1 -1.245625 0.07312500000000001L5.9375 8.75v-1.5625H4.375a0.625 0.625 0 0 1 -0.07312500000000001 -1.245625L4.375 5.9375h1.5625V4.375a0.625 0.625 0 0 1 0.625 -0.625Z" stroke-width="1"/></svg>